%TF.GenerationSoftware,KiCad,Pcbnew,9.0.6*%
%TF.CreationDate,2025-11-17T15:03:07+03:00*%
%TF.ProjectId,TempControl4ch,54656d70-436f-46e7-9472-6f6c3463682e,rev?*%
%TF.SameCoordinates,Original*%
%TF.FileFunction,Soldermask,Top*%
%TF.FilePolarity,Negative*%
%FSLAX46Y46*%
G04 Gerber Fmt 4.6, Leading zero omitted, Abs format (unit mm)*
G04 Created by KiCad (PCBNEW 9.0.6) date 2025-11-17 15:03:07*
%MOMM*%
%LPD*%
G01*
G04 APERTURE LIST*
G04 Aperture macros list*
%AMRoundRect*
0 Rectangle with rounded corners*
0 $1 Rounding radius*
0 $2 $3 $4 $5 $6 $7 $8 $9 X,Y pos of 4 corners*
0 Add a 4 corners polygon primitive as box body*
4,1,4,$2,$3,$4,$5,$6,$7,$8,$9,$2,$3,0*
0 Add four circle primitives for the rounded corners*
1,1,$1+$1,$2,$3*
1,1,$1+$1,$4,$5*
1,1,$1+$1,$6,$7*
1,1,$1+$1,$8,$9*
0 Add four rect primitives between the rounded corners*
20,1,$1+$1,$2,$3,$4,$5,0*
20,1,$1+$1,$4,$5,$6,$7,0*
20,1,$1+$1,$6,$7,$8,$9,0*
20,1,$1+$1,$8,$9,$2,$3,0*%
G04 Aperture macros list end*
%ADD10RoundRect,0.100000X-0.100000X0.637500X-0.100000X-0.637500X0.100000X-0.637500X0.100000X0.637500X0*%
%ADD11RoundRect,0.200000X0.200000X0.275000X-0.200000X0.275000X-0.200000X-0.275000X0.200000X-0.275000X0*%
%ADD12RoundRect,0.225000X0.250000X-0.225000X0.250000X0.225000X-0.250000X0.225000X-0.250000X-0.225000X0*%
%ADD13RoundRect,0.225000X-0.225000X-0.250000X0.225000X-0.250000X0.225000X0.250000X-0.225000X0.250000X0*%
%ADD14RoundRect,0.225000X0.225000X0.250000X-0.225000X0.250000X-0.225000X-0.250000X0.225000X-0.250000X0*%
%ADD15RoundRect,0.250000X-0.650000X-1.550000X0.650000X-1.550000X0.650000X1.550000X-0.650000X1.550000X0*%
%ADD16O,1.800000X3.600000*%
G04 APERTURE END LIST*
D10*
%TO.C,U4*%
X162400000Y-77000000D03*
X161750000Y-77000000D03*
X161100000Y-77000000D03*
X160450000Y-77000000D03*
X159800000Y-77000000D03*
X159150000Y-77000000D03*
X158500000Y-77000000D03*
X158500000Y-82725000D03*
X159150000Y-82725000D03*
X159800000Y-82725000D03*
X160450000Y-82725000D03*
X161100000Y-82725000D03*
X161750000Y-82725000D03*
X162400000Y-82725000D03*
%TD*%
%TO.C,U3*%
X149600000Y-77000000D03*
X148950000Y-77000000D03*
X148300000Y-77000000D03*
X147650000Y-77000000D03*
X147000000Y-77000000D03*
X146350000Y-77000000D03*
X145700000Y-77000000D03*
X145700000Y-82725000D03*
X146350000Y-82725000D03*
X147000000Y-82725000D03*
X147650000Y-82725000D03*
X148300000Y-82725000D03*
X148950000Y-82725000D03*
X149600000Y-82725000D03*
%TD*%
%TO.C,U2*%
X137312500Y-76837500D03*
X136662500Y-76837500D03*
X136012500Y-76837500D03*
X135362500Y-76837500D03*
X134712500Y-76837500D03*
X134062500Y-76837500D03*
X133412500Y-76837500D03*
X133412500Y-82562500D03*
X134062500Y-82562500D03*
X134712500Y-82562500D03*
X135362500Y-82562500D03*
X136012500Y-82562500D03*
X136662500Y-82562500D03*
X137312500Y-82562500D03*
%TD*%
D11*
%TO.C,R12*%
X164650000Y-73500000D03*
X163000000Y-73500000D03*
%TD*%
%TO.C,R11*%
X164650000Y-71500000D03*
X163000000Y-71500000D03*
%TD*%
%TO.C,R10*%
X158500000Y-70000000D03*
X156850000Y-70000000D03*
%TD*%
%TO.C,R9*%
X152150000Y-73500000D03*
X150500000Y-73500000D03*
%TD*%
%TO.C,R8*%
X152150000Y-71500000D03*
X150500000Y-71500000D03*
%TD*%
%TO.C,R7*%
X146000000Y-70000000D03*
X144350000Y-70000000D03*
%TD*%
%TO.C,R6*%
X140150000Y-73500000D03*
X138500000Y-73500000D03*
%TD*%
%TO.C,R5*%
X140150000Y-71500000D03*
X138500000Y-71500000D03*
%TD*%
%TO.C,R4*%
X134000000Y-70000000D03*
X132350000Y-70000000D03*
%TD*%
D12*
%TO.C,C20*%
X163500000Y-87000000D03*
X163500000Y-85450000D03*
%TD*%
%TO.C,C19*%
X157500000Y-86955000D03*
X157500000Y-85405000D03*
%TD*%
%TO.C,C18*%
X161500000Y-73050000D03*
X161500000Y-71500000D03*
%TD*%
D13*
%TO.C,C17*%
X158500000Y-74500000D03*
X160050000Y-74500000D03*
%TD*%
D14*
%TO.C,C16*%
X158500000Y-72500000D03*
X156950000Y-72500000D03*
%TD*%
D12*
%TO.C,C15*%
X150500000Y-87045000D03*
X150500000Y-85495000D03*
%TD*%
%TO.C,C14*%
X145500000Y-87045000D03*
X145500000Y-85495000D03*
%TD*%
%TO.C,C13*%
X149000000Y-73000000D03*
X149000000Y-71450000D03*
%TD*%
D13*
%TO.C,C12*%
X146000000Y-74500000D03*
X147550000Y-74500000D03*
%TD*%
D14*
%TO.C,C11*%
X146000000Y-72000000D03*
X144450000Y-72000000D03*
%TD*%
D12*
%TO.C,C10*%
X138000000Y-87045000D03*
X138000000Y-85495000D03*
%TD*%
%TO.C,C9*%
X133000000Y-87045000D03*
X133000000Y-85495000D03*
%TD*%
%TO.C,C8*%
X137000000Y-73000000D03*
X137000000Y-71450000D03*
%TD*%
D13*
%TO.C,C7*%
X133950000Y-74500000D03*
X135500000Y-74500000D03*
%TD*%
D14*
%TO.C,C6*%
X134000000Y-72000000D03*
X132450000Y-72000000D03*
%TD*%
D10*
%TO.C,U1*%
X124625000Y-76825000D03*
X123975000Y-76825000D03*
X123325000Y-76825000D03*
X122675000Y-76825000D03*
X122025000Y-76825000D03*
X121375000Y-76825000D03*
X120725000Y-76825000D03*
X120725000Y-82550000D03*
X121375000Y-82550000D03*
X122025000Y-82550000D03*
X122675000Y-82550000D03*
X123325000Y-82550000D03*
X123975000Y-82550000D03*
X124625000Y-82550000D03*
%TD*%
D11*
%TO.C,R3*%
X121875000Y-70050000D03*
X120225000Y-70050000D03*
%TD*%
%TO.C,R2*%
X127875000Y-71050000D03*
X126225000Y-71050000D03*
%TD*%
%TO.C,R1*%
X127875000Y-73050000D03*
X126225000Y-73050000D03*
%TD*%
D15*
%TO.C,J1*%
X130330000Y-64000000D03*
D16*
X134140000Y-64000000D03*
X137950000Y-64000000D03*
X141760000Y-64000000D03*
X145570000Y-64000000D03*
X149380000Y-64000000D03*
X153190000Y-64000000D03*
X157000000Y-64000000D03*
%TD*%
D12*
%TO.C,C5*%
X125000000Y-87045000D03*
X125000000Y-85495000D03*
%TD*%
%TO.C,C4*%
X120725000Y-87045000D03*
X120725000Y-85495000D03*
%TD*%
D14*
%TO.C,C3*%
X121775000Y-72050000D03*
X120225000Y-72050000D03*
%TD*%
D12*
%TO.C,C2*%
X124725000Y-72600000D03*
X124725000Y-71050000D03*
%TD*%
D13*
%TO.C,C1*%
X121725000Y-74050000D03*
X123275000Y-74050000D03*
%TD*%
M02*
