%TF.GenerationSoftware,KiCad,Pcbnew,9.0.6*%
%TF.CreationDate,2025-11-17T15:03:21+03:00*%
%TF.ProjectId,TempControl4ch,54656d70-436f-46e7-9472-6f6c3463682e,rev?*%
%TF.SameCoordinates,Original*%
%TF.FileFunction,Drillmap*%
%TF.FilePolarity,Positive*%
%FSLAX45Y45*%
G04 Gerber Fmt 4.5, Leading zero omitted, Abs format (unit mm)*
G04 Created by KiCad (PCBNEW 9.0.6) date 2025-11-17 15:03:21*
%MOMM*%
%LPD*%
G01*
G04 APERTURE LIST*
%ADD10C,0.050000*%
%ADD11C,0.200000*%
G04 APERTURE END LIST*
D10*
X11800000Y-5800000D02*
X17000000Y-5800000D01*
X17000000Y-9800000D01*
X11800000Y-9800000D01*
X11800000Y-5800000D01*
D11*
X12058277Y-10113984D02*
X12058277Y-9913984D01*
X12058277Y-9913984D02*
X12105896Y-9913984D01*
X12105896Y-9913984D02*
X12134467Y-9923508D01*
X12134467Y-9923508D02*
X12153515Y-9942555D01*
X12153515Y-9942555D02*
X12163039Y-9961603D01*
X12163039Y-9961603D02*
X12172562Y-9999698D01*
X12172562Y-9999698D02*
X12172562Y-10028270D01*
X12172562Y-10028270D02*
X12163039Y-10066365D01*
X12163039Y-10066365D02*
X12153515Y-10085412D01*
X12153515Y-10085412D02*
X12134467Y-10104460D01*
X12134467Y-10104460D02*
X12105896Y-10113984D01*
X12105896Y-10113984D02*
X12058277Y-10113984D01*
X12258277Y-10113984D02*
X12258277Y-9980650D01*
X12258277Y-10018746D02*
X12267801Y-9999698D01*
X12267801Y-9999698D02*
X12277324Y-9990174D01*
X12277324Y-9990174D02*
X12296372Y-9980650D01*
X12296372Y-9980650D02*
X12315420Y-9980650D01*
X12382086Y-10113984D02*
X12382086Y-9980650D01*
X12382086Y-9913984D02*
X12372562Y-9923508D01*
X12372562Y-9923508D02*
X12382086Y-9933031D01*
X12382086Y-9933031D02*
X12391610Y-9923508D01*
X12391610Y-9923508D02*
X12382086Y-9913984D01*
X12382086Y-9913984D02*
X12382086Y-9933031D01*
X12505896Y-10113984D02*
X12486848Y-10104460D01*
X12486848Y-10104460D02*
X12477324Y-10085412D01*
X12477324Y-10085412D02*
X12477324Y-9913984D01*
X12610658Y-10113984D02*
X12591610Y-10104460D01*
X12591610Y-10104460D02*
X12582086Y-10085412D01*
X12582086Y-10085412D02*
X12582086Y-9913984D01*
X12839229Y-10113984D02*
X12839229Y-9913984D01*
X12839229Y-9913984D02*
X12905896Y-10056841D01*
X12905896Y-10056841D02*
X12972562Y-9913984D01*
X12972562Y-9913984D02*
X12972562Y-10113984D01*
X13153515Y-10113984D02*
X13153515Y-10009222D01*
X13153515Y-10009222D02*
X13143991Y-9990174D01*
X13143991Y-9990174D02*
X13124943Y-9980650D01*
X13124943Y-9980650D02*
X13086848Y-9980650D01*
X13086848Y-9980650D02*
X13067801Y-9990174D01*
X13153515Y-10104460D02*
X13134467Y-10113984D01*
X13134467Y-10113984D02*
X13086848Y-10113984D01*
X13086848Y-10113984D02*
X13067801Y-10104460D01*
X13067801Y-10104460D02*
X13058277Y-10085412D01*
X13058277Y-10085412D02*
X13058277Y-10066365D01*
X13058277Y-10066365D02*
X13067801Y-10047317D01*
X13067801Y-10047317D02*
X13086848Y-10037793D01*
X13086848Y-10037793D02*
X13134467Y-10037793D01*
X13134467Y-10037793D02*
X13153515Y-10028270D01*
X13248753Y-9980650D02*
X13248753Y-10180650D01*
X13248753Y-9990174D02*
X13267801Y-9980650D01*
X13267801Y-9980650D02*
X13305896Y-9980650D01*
X13305896Y-9980650D02*
X13324943Y-9990174D01*
X13324943Y-9990174D02*
X13334467Y-9999698D01*
X13334467Y-9999698D02*
X13343991Y-10018746D01*
X13343991Y-10018746D02*
X13343991Y-10075889D01*
X13343991Y-10075889D02*
X13334467Y-10094936D01*
X13334467Y-10094936D02*
X13324943Y-10104460D01*
X13324943Y-10104460D02*
X13305896Y-10113984D01*
X13305896Y-10113984D02*
X13267801Y-10113984D01*
X13267801Y-10113984D02*
X13248753Y-10104460D01*
X13429705Y-10094936D02*
X13439229Y-10104460D01*
X13439229Y-10104460D02*
X13429705Y-10113984D01*
X13429705Y-10113984D02*
X13420182Y-10104460D01*
X13420182Y-10104460D02*
X13429705Y-10094936D01*
X13429705Y-10094936D02*
X13429705Y-10113984D01*
X13429705Y-9990174D02*
X13439229Y-9999698D01*
X13439229Y-9999698D02*
X13429705Y-10009222D01*
X13429705Y-10009222D02*
X13420182Y-9999698D01*
X13420182Y-9999698D02*
X13429705Y-9990174D01*
X13429705Y-9990174D02*
X13429705Y-10009222D01*
M02*
