%TF.GenerationSoftware,KiCad,Pcbnew,9.0.6*%
%TF.CreationDate,2025-11-17T15:03:07+03:00*%
%TF.ProjectId,TempControl4ch,54656d70-436f-46e7-9472-6f6c3463682e,rev?*%
%TF.SameCoordinates,Original*%
%TF.FileFunction,Legend,Top*%
%TF.FilePolarity,Positive*%
%FSLAX46Y46*%
G04 Gerber Fmt 4.6, Leading zero omitted, Abs format (unit mm)*
G04 Created by KiCad (PCBNEW 9.0.6) date 2025-11-17 15:03:07*
%MOMM*%
%LPD*%
G01*
G04 APERTURE LIST*
%ADD10C,0.150000*%
%ADD11C,0.120000*%
G04 APERTURE END LIST*
D10*
X163354819Y-80624404D02*
X164164342Y-80624404D01*
X164164342Y-80624404D02*
X164259580Y-80576785D01*
X164259580Y-80576785D02*
X164307200Y-80529166D01*
X164307200Y-80529166D02*
X164354819Y-80433928D01*
X164354819Y-80433928D02*
X164354819Y-80243452D01*
X164354819Y-80243452D02*
X164307200Y-80148214D01*
X164307200Y-80148214D02*
X164259580Y-80100595D01*
X164259580Y-80100595D02*
X164164342Y-80052976D01*
X164164342Y-80052976D02*
X163354819Y-80052976D01*
X163688152Y-79148214D02*
X164354819Y-79148214D01*
X163307200Y-79386309D02*
X164021485Y-79624404D01*
X164021485Y-79624404D02*
X164021485Y-79005357D01*
X138267319Y-80461904D02*
X139076842Y-80461904D01*
X139076842Y-80461904D02*
X139172080Y-80414285D01*
X139172080Y-80414285D02*
X139219700Y-80366666D01*
X139219700Y-80366666D02*
X139267319Y-80271428D01*
X139267319Y-80271428D02*
X139267319Y-80080952D01*
X139267319Y-80080952D02*
X139219700Y-79985714D01*
X139219700Y-79985714D02*
X139172080Y-79938095D01*
X139172080Y-79938095D02*
X139076842Y-79890476D01*
X139076842Y-79890476D02*
X138267319Y-79890476D01*
X138362557Y-79461904D02*
X138314938Y-79414285D01*
X138314938Y-79414285D02*
X138267319Y-79319047D01*
X138267319Y-79319047D02*
X138267319Y-79080952D01*
X138267319Y-79080952D02*
X138314938Y-78985714D01*
X138314938Y-78985714D02*
X138362557Y-78938095D01*
X138362557Y-78938095D02*
X138457795Y-78890476D01*
X138457795Y-78890476D02*
X138553033Y-78890476D01*
X138553033Y-78890476D02*
X138695890Y-78938095D01*
X138695890Y-78938095D02*
X139267319Y-79509523D01*
X139267319Y-79509523D02*
X139267319Y-78890476D01*
X163182142Y-75384819D02*
X162848809Y-74908628D01*
X162610714Y-75384819D02*
X162610714Y-74384819D01*
X162610714Y-74384819D02*
X162991666Y-74384819D01*
X162991666Y-74384819D02*
X163086904Y-74432438D01*
X163086904Y-74432438D02*
X163134523Y-74480057D01*
X163134523Y-74480057D02*
X163182142Y-74575295D01*
X163182142Y-74575295D02*
X163182142Y-74718152D01*
X163182142Y-74718152D02*
X163134523Y-74813390D01*
X163134523Y-74813390D02*
X163086904Y-74861009D01*
X163086904Y-74861009D02*
X162991666Y-74908628D01*
X162991666Y-74908628D02*
X162610714Y-74908628D01*
X164134523Y-75384819D02*
X163563095Y-75384819D01*
X163848809Y-75384819D02*
X163848809Y-74384819D01*
X163848809Y-74384819D02*
X163753571Y-74527676D01*
X163753571Y-74527676D02*
X163658333Y-74622914D01*
X163658333Y-74622914D02*
X163563095Y-74670533D01*
X164515476Y-74480057D02*
X164563095Y-74432438D01*
X164563095Y-74432438D02*
X164658333Y-74384819D01*
X164658333Y-74384819D02*
X164896428Y-74384819D01*
X164896428Y-74384819D02*
X164991666Y-74432438D01*
X164991666Y-74432438D02*
X165039285Y-74480057D01*
X165039285Y-74480057D02*
X165086904Y-74575295D01*
X165086904Y-74575295D02*
X165086904Y-74670533D01*
X165086904Y-74670533D02*
X165039285Y-74813390D01*
X165039285Y-74813390D02*
X164467857Y-75384819D01*
X164467857Y-75384819D02*
X165086904Y-75384819D01*
X163182142Y-73384819D02*
X162848809Y-72908628D01*
X162610714Y-73384819D02*
X162610714Y-72384819D01*
X162610714Y-72384819D02*
X162991666Y-72384819D01*
X162991666Y-72384819D02*
X163086904Y-72432438D01*
X163086904Y-72432438D02*
X163134523Y-72480057D01*
X163134523Y-72480057D02*
X163182142Y-72575295D01*
X163182142Y-72575295D02*
X163182142Y-72718152D01*
X163182142Y-72718152D02*
X163134523Y-72813390D01*
X163134523Y-72813390D02*
X163086904Y-72861009D01*
X163086904Y-72861009D02*
X162991666Y-72908628D01*
X162991666Y-72908628D02*
X162610714Y-72908628D01*
X164134523Y-73384819D02*
X163563095Y-73384819D01*
X163848809Y-73384819D02*
X163848809Y-72384819D01*
X163848809Y-72384819D02*
X163753571Y-72527676D01*
X163753571Y-72527676D02*
X163658333Y-72622914D01*
X163658333Y-72622914D02*
X163563095Y-72670533D01*
X165086904Y-73384819D02*
X164515476Y-73384819D01*
X164801190Y-73384819D02*
X164801190Y-72384819D01*
X164801190Y-72384819D02*
X164705952Y-72527676D01*
X164705952Y-72527676D02*
X164610714Y-72622914D01*
X164610714Y-72622914D02*
X164515476Y-72670533D01*
X157032142Y-71884819D02*
X156698809Y-71408628D01*
X156460714Y-71884819D02*
X156460714Y-70884819D01*
X156460714Y-70884819D02*
X156841666Y-70884819D01*
X156841666Y-70884819D02*
X156936904Y-70932438D01*
X156936904Y-70932438D02*
X156984523Y-70980057D01*
X156984523Y-70980057D02*
X157032142Y-71075295D01*
X157032142Y-71075295D02*
X157032142Y-71218152D01*
X157032142Y-71218152D02*
X156984523Y-71313390D01*
X156984523Y-71313390D02*
X156936904Y-71361009D01*
X156936904Y-71361009D02*
X156841666Y-71408628D01*
X156841666Y-71408628D02*
X156460714Y-71408628D01*
X157984523Y-71884819D02*
X157413095Y-71884819D01*
X157698809Y-71884819D02*
X157698809Y-70884819D01*
X157698809Y-70884819D02*
X157603571Y-71027676D01*
X157603571Y-71027676D02*
X157508333Y-71122914D01*
X157508333Y-71122914D02*
X157413095Y-71170533D01*
X158603571Y-70884819D02*
X158698809Y-70884819D01*
X158698809Y-70884819D02*
X158794047Y-70932438D01*
X158794047Y-70932438D02*
X158841666Y-70980057D01*
X158841666Y-70980057D02*
X158889285Y-71075295D01*
X158889285Y-71075295D02*
X158936904Y-71265771D01*
X158936904Y-71265771D02*
X158936904Y-71503866D01*
X158936904Y-71503866D02*
X158889285Y-71694342D01*
X158889285Y-71694342D02*
X158841666Y-71789580D01*
X158841666Y-71789580D02*
X158794047Y-71837200D01*
X158794047Y-71837200D02*
X158698809Y-71884819D01*
X158698809Y-71884819D02*
X158603571Y-71884819D01*
X158603571Y-71884819D02*
X158508333Y-71837200D01*
X158508333Y-71837200D02*
X158460714Y-71789580D01*
X158460714Y-71789580D02*
X158413095Y-71694342D01*
X158413095Y-71694342D02*
X158365476Y-71503866D01*
X158365476Y-71503866D02*
X158365476Y-71265771D01*
X158365476Y-71265771D02*
X158413095Y-71075295D01*
X158413095Y-71075295D02*
X158460714Y-70980057D01*
X158460714Y-70980057D02*
X158508333Y-70932438D01*
X158508333Y-70932438D02*
X158603571Y-70884819D01*
X151158333Y-75384819D02*
X150825000Y-74908628D01*
X150586905Y-75384819D02*
X150586905Y-74384819D01*
X150586905Y-74384819D02*
X150967857Y-74384819D01*
X150967857Y-74384819D02*
X151063095Y-74432438D01*
X151063095Y-74432438D02*
X151110714Y-74480057D01*
X151110714Y-74480057D02*
X151158333Y-74575295D01*
X151158333Y-74575295D02*
X151158333Y-74718152D01*
X151158333Y-74718152D02*
X151110714Y-74813390D01*
X151110714Y-74813390D02*
X151063095Y-74861009D01*
X151063095Y-74861009D02*
X150967857Y-74908628D01*
X150967857Y-74908628D02*
X150586905Y-74908628D01*
X151634524Y-75384819D02*
X151825000Y-75384819D01*
X151825000Y-75384819D02*
X151920238Y-75337200D01*
X151920238Y-75337200D02*
X151967857Y-75289580D01*
X151967857Y-75289580D02*
X152063095Y-75146723D01*
X152063095Y-75146723D02*
X152110714Y-74956247D01*
X152110714Y-74956247D02*
X152110714Y-74575295D01*
X152110714Y-74575295D02*
X152063095Y-74480057D01*
X152063095Y-74480057D02*
X152015476Y-74432438D01*
X152015476Y-74432438D02*
X151920238Y-74384819D01*
X151920238Y-74384819D02*
X151729762Y-74384819D01*
X151729762Y-74384819D02*
X151634524Y-74432438D01*
X151634524Y-74432438D02*
X151586905Y-74480057D01*
X151586905Y-74480057D02*
X151539286Y-74575295D01*
X151539286Y-74575295D02*
X151539286Y-74813390D01*
X151539286Y-74813390D02*
X151586905Y-74908628D01*
X151586905Y-74908628D02*
X151634524Y-74956247D01*
X151634524Y-74956247D02*
X151729762Y-75003866D01*
X151729762Y-75003866D02*
X151920238Y-75003866D01*
X151920238Y-75003866D02*
X152015476Y-74956247D01*
X152015476Y-74956247D02*
X152063095Y-74908628D01*
X152063095Y-74908628D02*
X152110714Y-74813390D01*
X151158333Y-73384819D02*
X150825000Y-72908628D01*
X150586905Y-73384819D02*
X150586905Y-72384819D01*
X150586905Y-72384819D02*
X150967857Y-72384819D01*
X150967857Y-72384819D02*
X151063095Y-72432438D01*
X151063095Y-72432438D02*
X151110714Y-72480057D01*
X151110714Y-72480057D02*
X151158333Y-72575295D01*
X151158333Y-72575295D02*
X151158333Y-72718152D01*
X151158333Y-72718152D02*
X151110714Y-72813390D01*
X151110714Y-72813390D02*
X151063095Y-72861009D01*
X151063095Y-72861009D02*
X150967857Y-72908628D01*
X150967857Y-72908628D02*
X150586905Y-72908628D01*
X151729762Y-72813390D02*
X151634524Y-72765771D01*
X151634524Y-72765771D02*
X151586905Y-72718152D01*
X151586905Y-72718152D02*
X151539286Y-72622914D01*
X151539286Y-72622914D02*
X151539286Y-72575295D01*
X151539286Y-72575295D02*
X151586905Y-72480057D01*
X151586905Y-72480057D02*
X151634524Y-72432438D01*
X151634524Y-72432438D02*
X151729762Y-72384819D01*
X151729762Y-72384819D02*
X151920238Y-72384819D01*
X151920238Y-72384819D02*
X152015476Y-72432438D01*
X152015476Y-72432438D02*
X152063095Y-72480057D01*
X152063095Y-72480057D02*
X152110714Y-72575295D01*
X152110714Y-72575295D02*
X152110714Y-72622914D01*
X152110714Y-72622914D02*
X152063095Y-72718152D01*
X152063095Y-72718152D02*
X152015476Y-72765771D01*
X152015476Y-72765771D02*
X151920238Y-72813390D01*
X151920238Y-72813390D02*
X151729762Y-72813390D01*
X151729762Y-72813390D02*
X151634524Y-72861009D01*
X151634524Y-72861009D02*
X151586905Y-72908628D01*
X151586905Y-72908628D02*
X151539286Y-73003866D01*
X151539286Y-73003866D02*
X151539286Y-73194342D01*
X151539286Y-73194342D02*
X151586905Y-73289580D01*
X151586905Y-73289580D02*
X151634524Y-73337200D01*
X151634524Y-73337200D02*
X151729762Y-73384819D01*
X151729762Y-73384819D02*
X151920238Y-73384819D01*
X151920238Y-73384819D02*
X152015476Y-73337200D01*
X152015476Y-73337200D02*
X152063095Y-73289580D01*
X152063095Y-73289580D02*
X152110714Y-73194342D01*
X152110714Y-73194342D02*
X152110714Y-73003866D01*
X152110714Y-73003866D02*
X152063095Y-72908628D01*
X152063095Y-72908628D02*
X152015476Y-72861009D01*
X152015476Y-72861009D02*
X151920238Y-72813390D01*
X145008333Y-71884819D02*
X144675000Y-71408628D01*
X144436905Y-71884819D02*
X144436905Y-70884819D01*
X144436905Y-70884819D02*
X144817857Y-70884819D01*
X144817857Y-70884819D02*
X144913095Y-70932438D01*
X144913095Y-70932438D02*
X144960714Y-70980057D01*
X144960714Y-70980057D02*
X145008333Y-71075295D01*
X145008333Y-71075295D02*
X145008333Y-71218152D01*
X145008333Y-71218152D02*
X144960714Y-71313390D01*
X144960714Y-71313390D02*
X144913095Y-71361009D01*
X144913095Y-71361009D02*
X144817857Y-71408628D01*
X144817857Y-71408628D02*
X144436905Y-71408628D01*
X145341667Y-70884819D02*
X146008333Y-70884819D01*
X146008333Y-70884819D02*
X145579762Y-71884819D01*
X139158333Y-75384819D02*
X138825000Y-74908628D01*
X138586905Y-75384819D02*
X138586905Y-74384819D01*
X138586905Y-74384819D02*
X138967857Y-74384819D01*
X138967857Y-74384819D02*
X139063095Y-74432438D01*
X139063095Y-74432438D02*
X139110714Y-74480057D01*
X139110714Y-74480057D02*
X139158333Y-74575295D01*
X139158333Y-74575295D02*
X139158333Y-74718152D01*
X139158333Y-74718152D02*
X139110714Y-74813390D01*
X139110714Y-74813390D02*
X139063095Y-74861009D01*
X139063095Y-74861009D02*
X138967857Y-74908628D01*
X138967857Y-74908628D02*
X138586905Y-74908628D01*
X140015476Y-74384819D02*
X139825000Y-74384819D01*
X139825000Y-74384819D02*
X139729762Y-74432438D01*
X139729762Y-74432438D02*
X139682143Y-74480057D01*
X139682143Y-74480057D02*
X139586905Y-74622914D01*
X139586905Y-74622914D02*
X139539286Y-74813390D01*
X139539286Y-74813390D02*
X139539286Y-75194342D01*
X139539286Y-75194342D02*
X139586905Y-75289580D01*
X139586905Y-75289580D02*
X139634524Y-75337200D01*
X139634524Y-75337200D02*
X139729762Y-75384819D01*
X139729762Y-75384819D02*
X139920238Y-75384819D01*
X139920238Y-75384819D02*
X140015476Y-75337200D01*
X140015476Y-75337200D02*
X140063095Y-75289580D01*
X140063095Y-75289580D02*
X140110714Y-75194342D01*
X140110714Y-75194342D02*
X140110714Y-74956247D01*
X140110714Y-74956247D02*
X140063095Y-74861009D01*
X140063095Y-74861009D02*
X140015476Y-74813390D01*
X140015476Y-74813390D02*
X139920238Y-74765771D01*
X139920238Y-74765771D02*
X139729762Y-74765771D01*
X139729762Y-74765771D02*
X139634524Y-74813390D01*
X139634524Y-74813390D02*
X139586905Y-74861009D01*
X139586905Y-74861009D02*
X139539286Y-74956247D01*
X139158333Y-73384819D02*
X138825000Y-72908628D01*
X138586905Y-73384819D02*
X138586905Y-72384819D01*
X138586905Y-72384819D02*
X138967857Y-72384819D01*
X138967857Y-72384819D02*
X139063095Y-72432438D01*
X139063095Y-72432438D02*
X139110714Y-72480057D01*
X139110714Y-72480057D02*
X139158333Y-72575295D01*
X139158333Y-72575295D02*
X139158333Y-72718152D01*
X139158333Y-72718152D02*
X139110714Y-72813390D01*
X139110714Y-72813390D02*
X139063095Y-72861009D01*
X139063095Y-72861009D02*
X138967857Y-72908628D01*
X138967857Y-72908628D02*
X138586905Y-72908628D01*
X140063095Y-72384819D02*
X139586905Y-72384819D01*
X139586905Y-72384819D02*
X139539286Y-72861009D01*
X139539286Y-72861009D02*
X139586905Y-72813390D01*
X139586905Y-72813390D02*
X139682143Y-72765771D01*
X139682143Y-72765771D02*
X139920238Y-72765771D01*
X139920238Y-72765771D02*
X140015476Y-72813390D01*
X140015476Y-72813390D02*
X140063095Y-72861009D01*
X140063095Y-72861009D02*
X140110714Y-72956247D01*
X140110714Y-72956247D02*
X140110714Y-73194342D01*
X140110714Y-73194342D02*
X140063095Y-73289580D01*
X140063095Y-73289580D02*
X140015476Y-73337200D01*
X140015476Y-73337200D02*
X139920238Y-73384819D01*
X139920238Y-73384819D02*
X139682143Y-73384819D01*
X139682143Y-73384819D02*
X139586905Y-73337200D01*
X139586905Y-73337200D02*
X139539286Y-73289580D01*
X133008333Y-71884819D02*
X132675000Y-71408628D01*
X132436905Y-71884819D02*
X132436905Y-70884819D01*
X132436905Y-70884819D02*
X132817857Y-70884819D01*
X132817857Y-70884819D02*
X132913095Y-70932438D01*
X132913095Y-70932438D02*
X132960714Y-70980057D01*
X132960714Y-70980057D02*
X133008333Y-71075295D01*
X133008333Y-71075295D02*
X133008333Y-71218152D01*
X133008333Y-71218152D02*
X132960714Y-71313390D01*
X132960714Y-71313390D02*
X132913095Y-71361009D01*
X132913095Y-71361009D02*
X132817857Y-71408628D01*
X132817857Y-71408628D02*
X132436905Y-71408628D01*
X133865476Y-71218152D02*
X133865476Y-71884819D01*
X133627381Y-70837200D02*
X133389286Y-71551485D01*
X133389286Y-71551485D02*
X134008333Y-71551485D01*
X162429580Y-86867857D02*
X162477200Y-86915476D01*
X162477200Y-86915476D02*
X162524819Y-87058333D01*
X162524819Y-87058333D02*
X162524819Y-87153571D01*
X162524819Y-87153571D02*
X162477200Y-87296428D01*
X162477200Y-87296428D02*
X162381961Y-87391666D01*
X162381961Y-87391666D02*
X162286723Y-87439285D01*
X162286723Y-87439285D02*
X162096247Y-87486904D01*
X162096247Y-87486904D02*
X161953390Y-87486904D01*
X161953390Y-87486904D02*
X161762914Y-87439285D01*
X161762914Y-87439285D02*
X161667676Y-87391666D01*
X161667676Y-87391666D02*
X161572438Y-87296428D01*
X161572438Y-87296428D02*
X161524819Y-87153571D01*
X161524819Y-87153571D02*
X161524819Y-87058333D01*
X161524819Y-87058333D02*
X161572438Y-86915476D01*
X161572438Y-86915476D02*
X161620057Y-86867857D01*
X161620057Y-86486904D02*
X161572438Y-86439285D01*
X161572438Y-86439285D02*
X161524819Y-86344047D01*
X161524819Y-86344047D02*
X161524819Y-86105952D01*
X161524819Y-86105952D02*
X161572438Y-86010714D01*
X161572438Y-86010714D02*
X161620057Y-85963095D01*
X161620057Y-85963095D02*
X161715295Y-85915476D01*
X161715295Y-85915476D02*
X161810533Y-85915476D01*
X161810533Y-85915476D02*
X161953390Y-85963095D01*
X161953390Y-85963095D02*
X162524819Y-86534523D01*
X162524819Y-86534523D02*
X162524819Y-85915476D01*
X161524819Y-85296428D02*
X161524819Y-85201190D01*
X161524819Y-85201190D02*
X161572438Y-85105952D01*
X161572438Y-85105952D02*
X161620057Y-85058333D01*
X161620057Y-85058333D02*
X161715295Y-85010714D01*
X161715295Y-85010714D02*
X161905771Y-84963095D01*
X161905771Y-84963095D02*
X162143866Y-84963095D01*
X162143866Y-84963095D02*
X162334342Y-85010714D01*
X162334342Y-85010714D02*
X162429580Y-85058333D01*
X162429580Y-85058333D02*
X162477200Y-85105952D01*
X162477200Y-85105952D02*
X162524819Y-85201190D01*
X162524819Y-85201190D02*
X162524819Y-85296428D01*
X162524819Y-85296428D02*
X162477200Y-85391666D01*
X162477200Y-85391666D02*
X162429580Y-85439285D01*
X162429580Y-85439285D02*
X162334342Y-85486904D01*
X162334342Y-85486904D02*
X162143866Y-85534523D01*
X162143866Y-85534523D02*
X161905771Y-85534523D01*
X161905771Y-85534523D02*
X161715295Y-85486904D01*
X161715295Y-85486904D02*
X161620057Y-85439285D01*
X161620057Y-85439285D02*
X161572438Y-85391666D01*
X161572438Y-85391666D02*
X161524819Y-85296428D01*
X156429580Y-86822857D02*
X156477200Y-86870476D01*
X156477200Y-86870476D02*
X156524819Y-87013333D01*
X156524819Y-87013333D02*
X156524819Y-87108571D01*
X156524819Y-87108571D02*
X156477200Y-87251428D01*
X156477200Y-87251428D02*
X156381961Y-87346666D01*
X156381961Y-87346666D02*
X156286723Y-87394285D01*
X156286723Y-87394285D02*
X156096247Y-87441904D01*
X156096247Y-87441904D02*
X155953390Y-87441904D01*
X155953390Y-87441904D02*
X155762914Y-87394285D01*
X155762914Y-87394285D02*
X155667676Y-87346666D01*
X155667676Y-87346666D02*
X155572438Y-87251428D01*
X155572438Y-87251428D02*
X155524819Y-87108571D01*
X155524819Y-87108571D02*
X155524819Y-87013333D01*
X155524819Y-87013333D02*
X155572438Y-86870476D01*
X155572438Y-86870476D02*
X155620057Y-86822857D01*
X156524819Y-85870476D02*
X156524819Y-86441904D01*
X156524819Y-86156190D02*
X155524819Y-86156190D01*
X155524819Y-86156190D02*
X155667676Y-86251428D01*
X155667676Y-86251428D02*
X155762914Y-86346666D01*
X155762914Y-86346666D02*
X155810533Y-86441904D01*
X156524819Y-85394285D02*
X156524819Y-85203809D01*
X156524819Y-85203809D02*
X156477200Y-85108571D01*
X156477200Y-85108571D02*
X156429580Y-85060952D01*
X156429580Y-85060952D02*
X156286723Y-84965714D01*
X156286723Y-84965714D02*
X156096247Y-84918095D01*
X156096247Y-84918095D02*
X155715295Y-84918095D01*
X155715295Y-84918095D02*
X155620057Y-84965714D01*
X155620057Y-84965714D02*
X155572438Y-85013333D01*
X155572438Y-85013333D02*
X155524819Y-85108571D01*
X155524819Y-85108571D02*
X155524819Y-85299047D01*
X155524819Y-85299047D02*
X155572438Y-85394285D01*
X155572438Y-85394285D02*
X155620057Y-85441904D01*
X155620057Y-85441904D02*
X155715295Y-85489523D01*
X155715295Y-85489523D02*
X155953390Y-85489523D01*
X155953390Y-85489523D02*
X156048628Y-85441904D01*
X156048628Y-85441904D02*
X156096247Y-85394285D01*
X156096247Y-85394285D02*
X156143866Y-85299047D01*
X156143866Y-85299047D02*
X156143866Y-85108571D01*
X156143866Y-85108571D02*
X156096247Y-85013333D01*
X156096247Y-85013333D02*
X156048628Y-84965714D01*
X156048628Y-84965714D02*
X155953390Y-84918095D01*
X160429580Y-72917857D02*
X160477200Y-72965476D01*
X160477200Y-72965476D02*
X160524819Y-73108333D01*
X160524819Y-73108333D02*
X160524819Y-73203571D01*
X160524819Y-73203571D02*
X160477200Y-73346428D01*
X160477200Y-73346428D02*
X160381961Y-73441666D01*
X160381961Y-73441666D02*
X160286723Y-73489285D01*
X160286723Y-73489285D02*
X160096247Y-73536904D01*
X160096247Y-73536904D02*
X159953390Y-73536904D01*
X159953390Y-73536904D02*
X159762914Y-73489285D01*
X159762914Y-73489285D02*
X159667676Y-73441666D01*
X159667676Y-73441666D02*
X159572438Y-73346428D01*
X159572438Y-73346428D02*
X159524819Y-73203571D01*
X159524819Y-73203571D02*
X159524819Y-73108333D01*
X159524819Y-73108333D02*
X159572438Y-72965476D01*
X159572438Y-72965476D02*
X159620057Y-72917857D01*
X160524819Y-71965476D02*
X160524819Y-72536904D01*
X160524819Y-72251190D02*
X159524819Y-72251190D01*
X159524819Y-72251190D02*
X159667676Y-72346428D01*
X159667676Y-72346428D02*
X159762914Y-72441666D01*
X159762914Y-72441666D02*
X159810533Y-72536904D01*
X159953390Y-71394047D02*
X159905771Y-71489285D01*
X159905771Y-71489285D02*
X159858152Y-71536904D01*
X159858152Y-71536904D02*
X159762914Y-71584523D01*
X159762914Y-71584523D02*
X159715295Y-71584523D01*
X159715295Y-71584523D02*
X159620057Y-71536904D01*
X159620057Y-71536904D02*
X159572438Y-71489285D01*
X159572438Y-71489285D02*
X159524819Y-71394047D01*
X159524819Y-71394047D02*
X159524819Y-71203571D01*
X159524819Y-71203571D02*
X159572438Y-71108333D01*
X159572438Y-71108333D02*
X159620057Y-71060714D01*
X159620057Y-71060714D02*
X159715295Y-71013095D01*
X159715295Y-71013095D02*
X159762914Y-71013095D01*
X159762914Y-71013095D02*
X159858152Y-71060714D01*
X159858152Y-71060714D02*
X159905771Y-71108333D01*
X159905771Y-71108333D02*
X159953390Y-71203571D01*
X159953390Y-71203571D02*
X159953390Y-71394047D01*
X159953390Y-71394047D02*
X160001009Y-71489285D01*
X160001009Y-71489285D02*
X160048628Y-71536904D01*
X160048628Y-71536904D02*
X160143866Y-71584523D01*
X160143866Y-71584523D02*
X160334342Y-71584523D01*
X160334342Y-71584523D02*
X160429580Y-71536904D01*
X160429580Y-71536904D02*
X160477200Y-71489285D01*
X160477200Y-71489285D02*
X160524819Y-71394047D01*
X160524819Y-71394047D02*
X160524819Y-71203571D01*
X160524819Y-71203571D02*
X160477200Y-71108333D01*
X160477200Y-71108333D02*
X160429580Y-71060714D01*
X160429580Y-71060714D02*
X160334342Y-71013095D01*
X160334342Y-71013095D02*
X160143866Y-71013095D01*
X160143866Y-71013095D02*
X160048628Y-71060714D01*
X160048628Y-71060714D02*
X160001009Y-71108333D01*
X160001009Y-71108333D02*
X159953390Y-71203571D01*
X158632142Y-73429580D02*
X158584523Y-73477200D01*
X158584523Y-73477200D02*
X158441666Y-73524819D01*
X158441666Y-73524819D02*
X158346428Y-73524819D01*
X158346428Y-73524819D02*
X158203571Y-73477200D01*
X158203571Y-73477200D02*
X158108333Y-73381961D01*
X158108333Y-73381961D02*
X158060714Y-73286723D01*
X158060714Y-73286723D02*
X158013095Y-73096247D01*
X158013095Y-73096247D02*
X158013095Y-72953390D01*
X158013095Y-72953390D02*
X158060714Y-72762914D01*
X158060714Y-72762914D02*
X158108333Y-72667676D01*
X158108333Y-72667676D02*
X158203571Y-72572438D01*
X158203571Y-72572438D02*
X158346428Y-72524819D01*
X158346428Y-72524819D02*
X158441666Y-72524819D01*
X158441666Y-72524819D02*
X158584523Y-72572438D01*
X158584523Y-72572438D02*
X158632142Y-72620057D01*
X159584523Y-73524819D02*
X159013095Y-73524819D01*
X159298809Y-73524819D02*
X159298809Y-72524819D01*
X159298809Y-72524819D02*
X159203571Y-72667676D01*
X159203571Y-72667676D02*
X159108333Y-72762914D01*
X159108333Y-72762914D02*
X159013095Y-72810533D01*
X159917857Y-72524819D02*
X160584523Y-72524819D01*
X160584523Y-72524819D02*
X160155952Y-73524819D01*
X157082142Y-74289580D02*
X157034523Y-74337200D01*
X157034523Y-74337200D02*
X156891666Y-74384819D01*
X156891666Y-74384819D02*
X156796428Y-74384819D01*
X156796428Y-74384819D02*
X156653571Y-74337200D01*
X156653571Y-74337200D02*
X156558333Y-74241961D01*
X156558333Y-74241961D02*
X156510714Y-74146723D01*
X156510714Y-74146723D02*
X156463095Y-73956247D01*
X156463095Y-73956247D02*
X156463095Y-73813390D01*
X156463095Y-73813390D02*
X156510714Y-73622914D01*
X156510714Y-73622914D02*
X156558333Y-73527676D01*
X156558333Y-73527676D02*
X156653571Y-73432438D01*
X156653571Y-73432438D02*
X156796428Y-73384819D01*
X156796428Y-73384819D02*
X156891666Y-73384819D01*
X156891666Y-73384819D02*
X157034523Y-73432438D01*
X157034523Y-73432438D02*
X157082142Y-73480057D01*
X158034523Y-74384819D02*
X157463095Y-74384819D01*
X157748809Y-74384819D02*
X157748809Y-73384819D01*
X157748809Y-73384819D02*
X157653571Y-73527676D01*
X157653571Y-73527676D02*
X157558333Y-73622914D01*
X157558333Y-73622914D02*
X157463095Y-73670533D01*
X158891666Y-73384819D02*
X158701190Y-73384819D01*
X158701190Y-73384819D02*
X158605952Y-73432438D01*
X158605952Y-73432438D02*
X158558333Y-73480057D01*
X158558333Y-73480057D02*
X158463095Y-73622914D01*
X158463095Y-73622914D02*
X158415476Y-73813390D01*
X158415476Y-73813390D02*
X158415476Y-74194342D01*
X158415476Y-74194342D02*
X158463095Y-74289580D01*
X158463095Y-74289580D02*
X158510714Y-74337200D01*
X158510714Y-74337200D02*
X158605952Y-74384819D01*
X158605952Y-74384819D02*
X158796428Y-74384819D01*
X158796428Y-74384819D02*
X158891666Y-74337200D01*
X158891666Y-74337200D02*
X158939285Y-74289580D01*
X158939285Y-74289580D02*
X158986904Y-74194342D01*
X158986904Y-74194342D02*
X158986904Y-73956247D01*
X158986904Y-73956247D02*
X158939285Y-73861009D01*
X158939285Y-73861009D02*
X158891666Y-73813390D01*
X158891666Y-73813390D02*
X158796428Y-73765771D01*
X158796428Y-73765771D02*
X158605952Y-73765771D01*
X158605952Y-73765771D02*
X158510714Y-73813390D01*
X158510714Y-73813390D02*
X158463095Y-73861009D01*
X158463095Y-73861009D02*
X158415476Y-73956247D01*
X149429580Y-86912857D02*
X149477200Y-86960476D01*
X149477200Y-86960476D02*
X149524819Y-87103333D01*
X149524819Y-87103333D02*
X149524819Y-87198571D01*
X149524819Y-87198571D02*
X149477200Y-87341428D01*
X149477200Y-87341428D02*
X149381961Y-87436666D01*
X149381961Y-87436666D02*
X149286723Y-87484285D01*
X149286723Y-87484285D02*
X149096247Y-87531904D01*
X149096247Y-87531904D02*
X148953390Y-87531904D01*
X148953390Y-87531904D02*
X148762914Y-87484285D01*
X148762914Y-87484285D02*
X148667676Y-87436666D01*
X148667676Y-87436666D02*
X148572438Y-87341428D01*
X148572438Y-87341428D02*
X148524819Y-87198571D01*
X148524819Y-87198571D02*
X148524819Y-87103333D01*
X148524819Y-87103333D02*
X148572438Y-86960476D01*
X148572438Y-86960476D02*
X148620057Y-86912857D01*
X149524819Y-85960476D02*
X149524819Y-86531904D01*
X149524819Y-86246190D02*
X148524819Y-86246190D01*
X148524819Y-86246190D02*
X148667676Y-86341428D01*
X148667676Y-86341428D02*
X148762914Y-86436666D01*
X148762914Y-86436666D02*
X148810533Y-86531904D01*
X148524819Y-85055714D02*
X148524819Y-85531904D01*
X148524819Y-85531904D02*
X149001009Y-85579523D01*
X149001009Y-85579523D02*
X148953390Y-85531904D01*
X148953390Y-85531904D02*
X148905771Y-85436666D01*
X148905771Y-85436666D02*
X148905771Y-85198571D01*
X148905771Y-85198571D02*
X148953390Y-85103333D01*
X148953390Y-85103333D02*
X149001009Y-85055714D01*
X149001009Y-85055714D02*
X149096247Y-85008095D01*
X149096247Y-85008095D02*
X149334342Y-85008095D01*
X149334342Y-85008095D02*
X149429580Y-85055714D01*
X149429580Y-85055714D02*
X149477200Y-85103333D01*
X149477200Y-85103333D02*
X149524819Y-85198571D01*
X149524819Y-85198571D02*
X149524819Y-85436666D01*
X149524819Y-85436666D02*
X149477200Y-85531904D01*
X149477200Y-85531904D02*
X149429580Y-85579523D01*
X144429580Y-86912857D02*
X144477200Y-86960476D01*
X144477200Y-86960476D02*
X144524819Y-87103333D01*
X144524819Y-87103333D02*
X144524819Y-87198571D01*
X144524819Y-87198571D02*
X144477200Y-87341428D01*
X144477200Y-87341428D02*
X144381961Y-87436666D01*
X144381961Y-87436666D02*
X144286723Y-87484285D01*
X144286723Y-87484285D02*
X144096247Y-87531904D01*
X144096247Y-87531904D02*
X143953390Y-87531904D01*
X143953390Y-87531904D02*
X143762914Y-87484285D01*
X143762914Y-87484285D02*
X143667676Y-87436666D01*
X143667676Y-87436666D02*
X143572438Y-87341428D01*
X143572438Y-87341428D02*
X143524819Y-87198571D01*
X143524819Y-87198571D02*
X143524819Y-87103333D01*
X143524819Y-87103333D02*
X143572438Y-86960476D01*
X143572438Y-86960476D02*
X143620057Y-86912857D01*
X144524819Y-85960476D02*
X144524819Y-86531904D01*
X144524819Y-86246190D02*
X143524819Y-86246190D01*
X143524819Y-86246190D02*
X143667676Y-86341428D01*
X143667676Y-86341428D02*
X143762914Y-86436666D01*
X143762914Y-86436666D02*
X143810533Y-86531904D01*
X143858152Y-85103333D02*
X144524819Y-85103333D01*
X143477200Y-85341428D02*
X144191485Y-85579523D01*
X144191485Y-85579523D02*
X144191485Y-84960476D01*
X147929580Y-72867857D02*
X147977200Y-72915476D01*
X147977200Y-72915476D02*
X148024819Y-73058333D01*
X148024819Y-73058333D02*
X148024819Y-73153571D01*
X148024819Y-73153571D02*
X147977200Y-73296428D01*
X147977200Y-73296428D02*
X147881961Y-73391666D01*
X147881961Y-73391666D02*
X147786723Y-73439285D01*
X147786723Y-73439285D02*
X147596247Y-73486904D01*
X147596247Y-73486904D02*
X147453390Y-73486904D01*
X147453390Y-73486904D02*
X147262914Y-73439285D01*
X147262914Y-73439285D02*
X147167676Y-73391666D01*
X147167676Y-73391666D02*
X147072438Y-73296428D01*
X147072438Y-73296428D02*
X147024819Y-73153571D01*
X147024819Y-73153571D02*
X147024819Y-73058333D01*
X147024819Y-73058333D02*
X147072438Y-72915476D01*
X147072438Y-72915476D02*
X147120057Y-72867857D01*
X148024819Y-71915476D02*
X148024819Y-72486904D01*
X148024819Y-72201190D02*
X147024819Y-72201190D01*
X147024819Y-72201190D02*
X147167676Y-72296428D01*
X147167676Y-72296428D02*
X147262914Y-72391666D01*
X147262914Y-72391666D02*
X147310533Y-72486904D01*
X147024819Y-71582142D02*
X147024819Y-70963095D01*
X147024819Y-70963095D02*
X147405771Y-71296428D01*
X147405771Y-71296428D02*
X147405771Y-71153571D01*
X147405771Y-71153571D02*
X147453390Y-71058333D01*
X147453390Y-71058333D02*
X147501009Y-71010714D01*
X147501009Y-71010714D02*
X147596247Y-70963095D01*
X147596247Y-70963095D02*
X147834342Y-70963095D01*
X147834342Y-70963095D02*
X147929580Y-71010714D01*
X147929580Y-71010714D02*
X147977200Y-71058333D01*
X147977200Y-71058333D02*
X148024819Y-71153571D01*
X148024819Y-71153571D02*
X148024819Y-71439285D01*
X148024819Y-71439285D02*
X147977200Y-71534523D01*
X147977200Y-71534523D02*
X147929580Y-71582142D01*
X146132142Y-73429580D02*
X146084523Y-73477200D01*
X146084523Y-73477200D02*
X145941666Y-73524819D01*
X145941666Y-73524819D02*
X145846428Y-73524819D01*
X145846428Y-73524819D02*
X145703571Y-73477200D01*
X145703571Y-73477200D02*
X145608333Y-73381961D01*
X145608333Y-73381961D02*
X145560714Y-73286723D01*
X145560714Y-73286723D02*
X145513095Y-73096247D01*
X145513095Y-73096247D02*
X145513095Y-72953390D01*
X145513095Y-72953390D02*
X145560714Y-72762914D01*
X145560714Y-72762914D02*
X145608333Y-72667676D01*
X145608333Y-72667676D02*
X145703571Y-72572438D01*
X145703571Y-72572438D02*
X145846428Y-72524819D01*
X145846428Y-72524819D02*
X145941666Y-72524819D01*
X145941666Y-72524819D02*
X146084523Y-72572438D01*
X146084523Y-72572438D02*
X146132142Y-72620057D01*
X147084523Y-73524819D02*
X146513095Y-73524819D01*
X146798809Y-73524819D02*
X146798809Y-72524819D01*
X146798809Y-72524819D02*
X146703571Y-72667676D01*
X146703571Y-72667676D02*
X146608333Y-72762914D01*
X146608333Y-72762914D02*
X146513095Y-72810533D01*
X147465476Y-72620057D02*
X147513095Y-72572438D01*
X147513095Y-72572438D02*
X147608333Y-72524819D01*
X147608333Y-72524819D02*
X147846428Y-72524819D01*
X147846428Y-72524819D02*
X147941666Y-72572438D01*
X147941666Y-72572438D02*
X147989285Y-72620057D01*
X147989285Y-72620057D02*
X148036904Y-72715295D01*
X148036904Y-72715295D02*
X148036904Y-72810533D01*
X148036904Y-72810533D02*
X147989285Y-72953390D01*
X147989285Y-72953390D02*
X147417857Y-73524819D01*
X147417857Y-73524819D02*
X148036904Y-73524819D01*
X144582142Y-73789580D02*
X144534523Y-73837200D01*
X144534523Y-73837200D02*
X144391666Y-73884819D01*
X144391666Y-73884819D02*
X144296428Y-73884819D01*
X144296428Y-73884819D02*
X144153571Y-73837200D01*
X144153571Y-73837200D02*
X144058333Y-73741961D01*
X144058333Y-73741961D02*
X144010714Y-73646723D01*
X144010714Y-73646723D02*
X143963095Y-73456247D01*
X143963095Y-73456247D02*
X143963095Y-73313390D01*
X143963095Y-73313390D02*
X144010714Y-73122914D01*
X144010714Y-73122914D02*
X144058333Y-73027676D01*
X144058333Y-73027676D02*
X144153571Y-72932438D01*
X144153571Y-72932438D02*
X144296428Y-72884819D01*
X144296428Y-72884819D02*
X144391666Y-72884819D01*
X144391666Y-72884819D02*
X144534523Y-72932438D01*
X144534523Y-72932438D02*
X144582142Y-72980057D01*
X145534523Y-73884819D02*
X144963095Y-73884819D01*
X145248809Y-73884819D02*
X145248809Y-72884819D01*
X145248809Y-72884819D02*
X145153571Y-73027676D01*
X145153571Y-73027676D02*
X145058333Y-73122914D01*
X145058333Y-73122914D02*
X144963095Y-73170533D01*
X146486904Y-73884819D02*
X145915476Y-73884819D01*
X146201190Y-73884819D02*
X146201190Y-72884819D01*
X146201190Y-72884819D02*
X146105952Y-73027676D01*
X146105952Y-73027676D02*
X146010714Y-73122914D01*
X146010714Y-73122914D02*
X145915476Y-73170533D01*
X136929580Y-86912857D02*
X136977200Y-86960476D01*
X136977200Y-86960476D02*
X137024819Y-87103333D01*
X137024819Y-87103333D02*
X137024819Y-87198571D01*
X137024819Y-87198571D02*
X136977200Y-87341428D01*
X136977200Y-87341428D02*
X136881961Y-87436666D01*
X136881961Y-87436666D02*
X136786723Y-87484285D01*
X136786723Y-87484285D02*
X136596247Y-87531904D01*
X136596247Y-87531904D02*
X136453390Y-87531904D01*
X136453390Y-87531904D02*
X136262914Y-87484285D01*
X136262914Y-87484285D02*
X136167676Y-87436666D01*
X136167676Y-87436666D02*
X136072438Y-87341428D01*
X136072438Y-87341428D02*
X136024819Y-87198571D01*
X136024819Y-87198571D02*
X136024819Y-87103333D01*
X136024819Y-87103333D02*
X136072438Y-86960476D01*
X136072438Y-86960476D02*
X136120057Y-86912857D01*
X137024819Y-85960476D02*
X137024819Y-86531904D01*
X137024819Y-86246190D02*
X136024819Y-86246190D01*
X136024819Y-86246190D02*
X136167676Y-86341428D01*
X136167676Y-86341428D02*
X136262914Y-86436666D01*
X136262914Y-86436666D02*
X136310533Y-86531904D01*
X136024819Y-85341428D02*
X136024819Y-85246190D01*
X136024819Y-85246190D02*
X136072438Y-85150952D01*
X136072438Y-85150952D02*
X136120057Y-85103333D01*
X136120057Y-85103333D02*
X136215295Y-85055714D01*
X136215295Y-85055714D02*
X136405771Y-85008095D01*
X136405771Y-85008095D02*
X136643866Y-85008095D01*
X136643866Y-85008095D02*
X136834342Y-85055714D01*
X136834342Y-85055714D02*
X136929580Y-85103333D01*
X136929580Y-85103333D02*
X136977200Y-85150952D01*
X136977200Y-85150952D02*
X137024819Y-85246190D01*
X137024819Y-85246190D02*
X137024819Y-85341428D01*
X137024819Y-85341428D02*
X136977200Y-85436666D01*
X136977200Y-85436666D02*
X136929580Y-85484285D01*
X136929580Y-85484285D02*
X136834342Y-85531904D01*
X136834342Y-85531904D02*
X136643866Y-85579523D01*
X136643866Y-85579523D02*
X136405771Y-85579523D01*
X136405771Y-85579523D02*
X136215295Y-85531904D01*
X136215295Y-85531904D02*
X136120057Y-85484285D01*
X136120057Y-85484285D02*
X136072438Y-85436666D01*
X136072438Y-85436666D02*
X136024819Y-85341428D01*
X131929580Y-86436666D02*
X131977200Y-86484285D01*
X131977200Y-86484285D02*
X132024819Y-86627142D01*
X132024819Y-86627142D02*
X132024819Y-86722380D01*
X132024819Y-86722380D02*
X131977200Y-86865237D01*
X131977200Y-86865237D02*
X131881961Y-86960475D01*
X131881961Y-86960475D02*
X131786723Y-87008094D01*
X131786723Y-87008094D02*
X131596247Y-87055713D01*
X131596247Y-87055713D02*
X131453390Y-87055713D01*
X131453390Y-87055713D02*
X131262914Y-87008094D01*
X131262914Y-87008094D02*
X131167676Y-86960475D01*
X131167676Y-86960475D02*
X131072438Y-86865237D01*
X131072438Y-86865237D02*
X131024819Y-86722380D01*
X131024819Y-86722380D02*
X131024819Y-86627142D01*
X131024819Y-86627142D02*
X131072438Y-86484285D01*
X131072438Y-86484285D02*
X131120057Y-86436666D01*
X132024819Y-85960475D02*
X132024819Y-85769999D01*
X132024819Y-85769999D02*
X131977200Y-85674761D01*
X131977200Y-85674761D02*
X131929580Y-85627142D01*
X131929580Y-85627142D02*
X131786723Y-85531904D01*
X131786723Y-85531904D02*
X131596247Y-85484285D01*
X131596247Y-85484285D02*
X131215295Y-85484285D01*
X131215295Y-85484285D02*
X131120057Y-85531904D01*
X131120057Y-85531904D02*
X131072438Y-85579523D01*
X131072438Y-85579523D02*
X131024819Y-85674761D01*
X131024819Y-85674761D02*
X131024819Y-85865237D01*
X131024819Y-85865237D02*
X131072438Y-85960475D01*
X131072438Y-85960475D02*
X131120057Y-86008094D01*
X131120057Y-86008094D02*
X131215295Y-86055713D01*
X131215295Y-86055713D02*
X131453390Y-86055713D01*
X131453390Y-86055713D02*
X131548628Y-86008094D01*
X131548628Y-86008094D02*
X131596247Y-85960475D01*
X131596247Y-85960475D02*
X131643866Y-85865237D01*
X131643866Y-85865237D02*
X131643866Y-85674761D01*
X131643866Y-85674761D02*
X131596247Y-85579523D01*
X131596247Y-85579523D02*
X131548628Y-85531904D01*
X131548628Y-85531904D02*
X131453390Y-85484285D01*
X135929580Y-72391666D02*
X135977200Y-72439285D01*
X135977200Y-72439285D02*
X136024819Y-72582142D01*
X136024819Y-72582142D02*
X136024819Y-72677380D01*
X136024819Y-72677380D02*
X135977200Y-72820237D01*
X135977200Y-72820237D02*
X135881961Y-72915475D01*
X135881961Y-72915475D02*
X135786723Y-72963094D01*
X135786723Y-72963094D02*
X135596247Y-73010713D01*
X135596247Y-73010713D02*
X135453390Y-73010713D01*
X135453390Y-73010713D02*
X135262914Y-72963094D01*
X135262914Y-72963094D02*
X135167676Y-72915475D01*
X135167676Y-72915475D02*
X135072438Y-72820237D01*
X135072438Y-72820237D02*
X135024819Y-72677380D01*
X135024819Y-72677380D02*
X135024819Y-72582142D01*
X135024819Y-72582142D02*
X135072438Y-72439285D01*
X135072438Y-72439285D02*
X135120057Y-72391666D01*
X135453390Y-71820237D02*
X135405771Y-71915475D01*
X135405771Y-71915475D02*
X135358152Y-71963094D01*
X135358152Y-71963094D02*
X135262914Y-72010713D01*
X135262914Y-72010713D02*
X135215295Y-72010713D01*
X135215295Y-72010713D02*
X135120057Y-71963094D01*
X135120057Y-71963094D02*
X135072438Y-71915475D01*
X135072438Y-71915475D02*
X135024819Y-71820237D01*
X135024819Y-71820237D02*
X135024819Y-71629761D01*
X135024819Y-71629761D02*
X135072438Y-71534523D01*
X135072438Y-71534523D02*
X135120057Y-71486904D01*
X135120057Y-71486904D02*
X135215295Y-71439285D01*
X135215295Y-71439285D02*
X135262914Y-71439285D01*
X135262914Y-71439285D02*
X135358152Y-71486904D01*
X135358152Y-71486904D02*
X135405771Y-71534523D01*
X135405771Y-71534523D02*
X135453390Y-71629761D01*
X135453390Y-71629761D02*
X135453390Y-71820237D01*
X135453390Y-71820237D02*
X135501009Y-71915475D01*
X135501009Y-71915475D02*
X135548628Y-71963094D01*
X135548628Y-71963094D02*
X135643866Y-72010713D01*
X135643866Y-72010713D02*
X135834342Y-72010713D01*
X135834342Y-72010713D02*
X135929580Y-71963094D01*
X135929580Y-71963094D02*
X135977200Y-71915475D01*
X135977200Y-71915475D02*
X136024819Y-71820237D01*
X136024819Y-71820237D02*
X136024819Y-71629761D01*
X136024819Y-71629761D02*
X135977200Y-71534523D01*
X135977200Y-71534523D02*
X135929580Y-71486904D01*
X135929580Y-71486904D02*
X135834342Y-71439285D01*
X135834342Y-71439285D02*
X135643866Y-71439285D01*
X135643866Y-71439285D02*
X135548628Y-71486904D01*
X135548628Y-71486904D02*
X135501009Y-71534523D01*
X135501009Y-71534523D02*
X135453390Y-71629761D01*
X134558333Y-73429580D02*
X134510714Y-73477200D01*
X134510714Y-73477200D02*
X134367857Y-73524819D01*
X134367857Y-73524819D02*
X134272619Y-73524819D01*
X134272619Y-73524819D02*
X134129762Y-73477200D01*
X134129762Y-73477200D02*
X134034524Y-73381961D01*
X134034524Y-73381961D02*
X133986905Y-73286723D01*
X133986905Y-73286723D02*
X133939286Y-73096247D01*
X133939286Y-73096247D02*
X133939286Y-72953390D01*
X133939286Y-72953390D02*
X133986905Y-72762914D01*
X133986905Y-72762914D02*
X134034524Y-72667676D01*
X134034524Y-72667676D02*
X134129762Y-72572438D01*
X134129762Y-72572438D02*
X134272619Y-72524819D01*
X134272619Y-72524819D02*
X134367857Y-72524819D01*
X134367857Y-72524819D02*
X134510714Y-72572438D01*
X134510714Y-72572438D02*
X134558333Y-72620057D01*
X134891667Y-72524819D02*
X135558333Y-72524819D01*
X135558333Y-72524819D02*
X135129762Y-73524819D01*
X133058333Y-73789580D02*
X133010714Y-73837200D01*
X133010714Y-73837200D02*
X132867857Y-73884819D01*
X132867857Y-73884819D02*
X132772619Y-73884819D01*
X132772619Y-73884819D02*
X132629762Y-73837200D01*
X132629762Y-73837200D02*
X132534524Y-73741961D01*
X132534524Y-73741961D02*
X132486905Y-73646723D01*
X132486905Y-73646723D02*
X132439286Y-73456247D01*
X132439286Y-73456247D02*
X132439286Y-73313390D01*
X132439286Y-73313390D02*
X132486905Y-73122914D01*
X132486905Y-73122914D02*
X132534524Y-73027676D01*
X132534524Y-73027676D02*
X132629762Y-72932438D01*
X132629762Y-72932438D02*
X132772619Y-72884819D01*
X132772619Y-72884819D02*
X132867857Y-72884819D01*
X132867857Y-72884819D02*
X133010714Y-72932438D01*
X133010714Y-72932438D02*
X133058333Y-72980057D01*
X133915476Y-72884819D02*
X133725000Y-72884819D01*
X133725000Y-72884819D02*
X133629762Y-72932438D01*
X133629762Y-72932438D02*
X133582143Y-72980057D01*
X133582143Y-72980057D02*
X133486905Y-73122914D01*
X133486905Y-73122914D02*
X133439286Y-73313390D01*
X133439286Y-73313390D02*
X133439286Y-73694342D01*
X133439286Y-73694342D02*
X133486905Y-73789580D01*
X133486905Y-73789580D02*
X133534524Y-73837200D01*
X133534524Y-73837200D02*
X133629762Y-73884819D01*
X133629762Y-73884819D02*
X133820238Y-73884819D01*
X133820238Y-73884819D02*
X133915476Y-73837200D01*
X133915476Y-73837200D02*
X133963095Y-73789580D01*
X133963095Y-73789580D02*
X134010714Y-73694342D01*
X134010714Y-73694342D02*
X134010714Y-73456247D01*
X134010714Y-73456247D02*
X133963095Y-73361009D01*
X133963095Y-73361009D02*
X133915476Y-73313390D01*
X133915476Y-73313390D02*
X133820238Y-73265771D01*
X133820238Y-73265771D02*
X133629762Y-73265771D01*
X133629762Y-73265771D02*
X133534524Y-73313390D01*
X133534524Y-73313390D02*
X133486905Y-73361009D01*
X133486905Y-73361009D02*
X133439286Y-73456247D01*
X125579819Y-80449404D02*
X126389342Y-80449404D01*
X126389342Y-80449404D02*
X126484580Y-80401785D01*
X126484580Y-80401785D02*
X126532200Y-80354166D01*
X126532200Y-80354166D02*
X126579819Y-80258928D01*
X126579819Y-80258928D02*
X126579819Y-80068452D01*
X126579819Y-80068452D02*
X126532200Y-79973214D01*
X126532200Y-79973214D02*
X126484580Y-79925595D01*
X126484580Y-79925595D02*
X126389342Y-79877976D01*
X126389342Y-79877976D02*
X125579819Y-79877976D01*
X126579819Y-78877976D02*
X126579819Y-79449404D01*
X126579819Y-79163690D02*
X125579819Y-79163690D01*
X125579819Y-79163690D02*
X125722676Y-79258928D01*
X125722676Y-79258928D02*
X125817914Y-79354166D01*
X125817914Y-79354166D02*
X125865533Y-79449404D01*
X120883333Y-71934819D02*
X120550000Y-71458628D01*
X120311905Y-71934819D02*
X120311905Y-70934819D01*
X120311905Y-70934819D02*
X120692857Y-70934819D01*
X120692857Y-70934819D02*
X120788095Y-70982438D01*
X120788095Y-70982438D02*
X120835714Y-71030057D01*
X120835714Y-71030057D02*
X120883333Y-71125295D01*
X120883333Y-71125295D02*
X120883333Y-71268152D01*
X120883333Y-71268152D02*
X120835714Y-71363390D01*
X120835714Y-71363390D02*
X120788095Y-71411009D01*
X120788095Y-71411009D02*
X120692857Y-71458628D01*
X120692857Y-71458628D02*
X120311905Y-71458628D01*
X121216667Y-70934819D02*
X121835714Y-70934819D01*
X121835714Y-70934819D02*
X121502381Y-71315771D01*
X121502381Y-71315771D02*
X121645238Y-71315771D01*
X121645238Y-71315771D02*
X121740476Y-71363390D01*
X121740476Y-71363390D02*
X121788095Y-71411009D01*
X121788095Y-71411009D02*
X121835714Y-71506247D01*
X121835714Y-71506247D02*
X121835714Y-71744342D01*
X121835714Y-71744342D02*
X121788095Y-71839580D01*
X121788095Y-71839580D02*
X121740476Y-71887200D01*
X121740476Y-71887200D02*
X121645238Y-71934819D01*
X121645238Y-71934819D02*
X121359524Y-71934819D01*
X121359524Y-71934819D02*
X121264286Y-71887200D01*
X121264286Y-71887200D02*
X121216667Y-71839580D01*
X126883333Y-72934819D02*
X126550000Y-72458628D01*
X126311905Y-72934819D02*
X126311905Y-71934819D01*
X126311905Y-71934819D02*
X126692857Y-71934819D01*
X126692857Y-71934819D02*
X126788095Y-71982438D01*
X126788095Y-71982438D02*
X126835714Y-72030057D01*
X126835714Y-72030057D02*
X126883333Y-72125295D01*
X126883333Y-72125295D02*
X126883333Y-72268152D01*
X126883333Y-72268152D02*
X126835714Y-72363390D01*
X126835714Y-72363390D02*
X126788095Y-72411009D01*
X126788095Y-72411009D02*
X126692857Y-72458628D01*
X126692857Y-72458628D02*
X126311905Y-72458628D01*
X127264286Y-72030057D02*
X127311905Y-71982438D01*
X127311905Y-71982438D02*
X127407143Y-71934819D01*
X127407143Y-71934819D02*
X127645238Y-71934819D01*
X127645238Y-71934819D02*
X127740476Y-71982438D01*
X127740476Y-71982438D02*
X127788095Y-72030057D01*
X127788095Y-72030057D02*
X127835714Y-72125295D01*
X127835714Y-72125295D02*
X127835714Y-72220533D01*
X127835714Y-72220533D02*
X127788095Y-72363390D01*
X127788095Y-72363390D02*
X127216667Y-72934819D01*
X127216667Y-72934819D02*
X127835714Y-72934819D01*
X126883333Y-74934819D02*
X126550000Y-74458628D01*
X126311905Y-74934819D02*
X126311905Y-73934819D01*
X126311905Y-73934819D02*
X126692857Y-73934819D01*
X126692857Y-73934819D02*
X126788095Y-73982438D01*
X126788095Y-73982438D02*
X126835714Y-74030057D01*
X126835714Y-74030057D02*
X126883333Y-74125295D01*
X126883333Y-74125295D02*
X126883333Y-74268152D01*
X126883333Y-74268152D02*
X126835714Y-74363390D01*
X126835714Y-74363390D02*
X126788095Y-74411009D01*
X126788095Y-74411009D02*
X126692857Y-74458628D01*
X126692857Y-74458628D02*
X126311905Y-74458628D01*
X127835714Y-74934819D02*
X127264286Y-74934819D01*
X127550000Y-74934819D02*
X127550000Y-73934819D01*
X127550000Y-73934819D02*
X127454762Y-74077676D01*
X127454762Y-74077676D02*
X127359524Y-74172914D01*
X127359524Y-74172914D02*
X127264286Y-74220533D01*
X143326666Y-58004819D02*
X143326666Y-58719104D01*
X143326666Y-58719104D02*
X143279047Y-58861961D01*
X143279047Y-58861961D02*
X143183809Y-58957200D01*
X143183809Y-58957200D02*
X143040952Y-59004819D01*
X143040952Y-59004819D02*
X142945714Y-59004819D01*
X144326666Y-59004819D02*
X143755238Y-59004819D01*
X144040952Y-59004819D02*
X144040952Y-58004819D01*
X144040952Y-58004819D02*
X143945714Y-58147676D01*
X143945714Y-58147676D02*
X143850476Y-58242914D01*
X143850476Y-58242914D02*
X143755238Y-58290533D01*
X123929580Y-86436666D02*
X123977200Y-86484285D01*
X123977200Y-86484285D02*
X124024819Y-86627142D01*
X124024819Y-86627142D02*
X124024819Y-86722380D01*
X124024819Y-86722380D02*
X123977200Y-86865237D01*
X123977200Y-86865237D02*
X123881961Y-86960475D01*
X123881961Y-86960475D02*
X123786723Y-87008094D01*
X123786723Y-87008094D02*
X123596247Y-87055713D01*
X123596247Y-87055713D02*
X123453390Y-87055713D01*
X123453390Y-87055713D02*
X123262914Y-87008094D01*
X123262914Y-87008094D02*
X123167676Y-86960475D01*
X123167676Y-86960475D02*
X123072438Y-86865237D01*
X123072438Y-86865237D02*
X123024819Y-86722380D01*
X123024819Y-86722380D02*
X123024819Y-86627142D01*
X123024819Y-86627142D02*
X123072438Y-86484285D01*
X123072438Y-86484285D02*
X123120057Y-86436666D01*
X123024819Y-85531904D02*
X123024819Y-86008094D01*
X123024819Y-86008094D02*
X123501009Y-86055713D01*
X123501009Y-86055713D02*
X123453390Y-86008094D01*
X123453390Y-86008094D02*
X123405771Y-85912856D01*
X123405771Y-85912856D02*
X123405771Y-85674761D01*
X123405771Y-85674761D02*
X123453390Y-85579523D01*
X123453390Y-85579523D02*
X123501009Y-85531904D01*
X123501009Y-85531904D02*
X123596247Y-85484285D01*
X123596247Y-85484285D02*
X123834342Y-85484285D01*
X123834342Y-85484285D02*
X123929580Y-85531904D01*
X123929580Y-85531904D02*
X123977200Y-85579523D01*
X123977200Y-85579523D02*
X124024819Y-85674761D01*
X124024819Y-85674761D02*
X124024819Y-85912856D01*
X124024819Y-85912856D02*
X123977200Y-86008094D01*
X123977200Y-86008094D02*
X123929580Y-86055713D01*
X119654580Y-86436666D02*
X119702200Y-86484285D01*
X119702200Y-86484285D02*
X119749819Y-86627142D01*
X119749819Y-86627142D02*
X119749819Y-86722380D01*
X119749819Y-86722380D02*
X119702200Y-86865237D01*
X119702200Y-86865237D02*
X119606961Y-86960475D01*
X119606961Y-86960475D02*
X119511723Y-87008094D01*
X119511723Y-87008094D02*
X119321247Y-87055713D01*
X119321247Y-87055713D02*
X119178390Y-87055713D01*
X119178390Y-87055713D02*
X118987914Y-87008094D01*
X118987914Y-87008094D02*
X118892676Y-86960475D01*
X118892676Y-86960475D02*
X118797438Y-86865237D01*
X118797438Y-86865237D02*
X118749819Y-86722380D01*
X118749819Y-86722380D02*
X118749819Y-86627142D01*
X118749819Y-86627142D02*
X118797438Y-86484285D01*
X118797438Y-86484285D02*
X118845057Y-86436666D01*
X119083152Y-85579523D02*
X119749819Y-85579523D01*
X118702200Y-85817618D02*
X119416485Y-86055713D01*
X119416485Y-86055713D02*
X119416485Y-85436666D01*
X120833333Y-73839580D02*
X120785714Y-73887200D01*
X120785714Y-73887200D02*
X120642857Y-73934819D01*
X120642857Y-73934819D02*
X120547619Y-73934819D01*
X120547619Y-73934819D02*
X120404762Y-73887200D01*
X120404762Y-73887200D02*
X120309524Y-73791961D01*
X120309524Y-73791961D02*
X120261905Y-73696723D01*
X120261905Y-73696723D02*
X120214286Y-73506247D01*
X120214286Y-73506247D02*
X120214286Y-73363390D01*
X120214286Y-73363390D02*
X120261905Y-73172914D01*
X120261905Y-73172914D02*
X120309524Y-73077676D01*
X120309524Y-73077676D02*
X120404762Y-72982438D01*
X120404762Y-72982438D02*
X120547619Y-72934819D01*
X120547619Y-72934819D02*
X120642857Y-72934819D01*
X120642857Y-72934819D02*
X120785714Y-72982438D01*
X120785714Y-72982438D02*
X120833333Y-73030057D01*
X121166667Y-72934819D02*
X121785714Y-72934819D01*
X121785714Y-72934819D02*
X121452381Y-73315771D01*
X121452381Y-73315771D02*
X121595238Y-73315771D01*
X121595238Y-73315771D02*
X121690476Y-73363390D01*
X121690476Y-73363390D02*
X121738095Y-73411009D01*
X121738095Y-73411009D02*
X121785714Y-73506247D01*
X121785714Y-73506247D02*
X121785714Y-73744342D01*
X121785714Y-73744342D02*
X121738095Y-73839580D01*
X121738095Y-73839580D02*
X121690476Y-73887200D01*
X121690476Y-73887200D02*
X121595238Y-73934819D01*
X121595238Y-73934819D02*
X121309524Y-73934819D01*
X121309524Y-73934819D02*
X121214286Y-73887200D01*
X121214286Y-73887200D02*
X121166667Y-73839580D01*
X123654580Y-71991666D02*
X123702200Y-72039285D01*
X123702200Y-72039285D02*
X123749819Y-72182142D01*
X123749819Y-72182142D02*
X123749819Y-72277380D01*
X123749819Y-72277380D02*
X123702200Y-72420237D01*
X123702200Y-72420237D02*
X123606961Y-72515475D01*
X123606961Y-72515475D02*
X123511723Y-72563094D01*
X123511723Y-72563094D02*
X123321247Y-72610713D01*
X123321247Y-72610713D02*
X123178390Y-72610713D01*
X123178390Y-72610713D02*
X122987914Y-72563094D01*
X122987914Y-72563094D02*
X122892676Y-72515475D01*
X122892676Y-72515475D02*
X122797438Y-72420237D01*
X122797438Y-72420237D02*
X122749819Y-72277380D01*
X122749819Y-72277380D02*
X122749819Y-72182142D01*
X122749819Y-72182142D02*
X122797438Y-72039285D01*
X122797438Y-72039285D02*
X122845057Y-71991666D01*
X122845057Y-71610713D02*
X122797438Y-71563094D01*
X122797438Y-71563094D02*
X122749819Y-71467856D01*
X122749819Y-71467856D02*
X122749819Y-71229761D01*
X122749819Y-71229761D02*
X122797438Y-71134523D01*
X122797438Y-71134523D02*
X122845057Y-71086904D01*
X122845057Y-71086904D02*
X122940295Y-71039285D01*
X122940295Y-71039285D02*
X123035533Y-71039285D01*
X123035533Y-71039285D02*
X123178390Y-71086904D01*
X123178390Y-71086904D02*
X123749819Y-71658332D01*
X123749819Y-71658332D02*
X123749819Y-71039285D01*
X122333333Y-72979580D02*
X122285714Y-73027200D01*
X122285714Y-73027200D02*
X122142857Y-73074819D01*
X122142857Y-73074819D02*
X122047619Y-73074819D01*
X122047619Y-73074819D02*
X121904762Y-73027200D01*
X121904762Y-73027200D02*
X121809524Y-72931961D01*
X121809524Y-72931961D02*
X121761905Y-72836723D01*
X121761905Y-72836723D02*
X121714286Y-72646247D01*
X121714286Y-72646247D02*
X121714286Y-72503390D01*
X121714286Y-72503390D02*
X121761905Y-72312914D01*
X121761905Y-72312914D02*
X121809524Y-72217676D01*
X121809524Y-72217676D02*
X121904762Y-72122438D01*
X121904762Y-72122438D02*
X122047619Y-72074819D01*
X122047619Y-72074819D02*
X122142857Y-72074819D01*
X122142857Y-72074819D02*
X122285714Y-72122438D01*
X122285714Y-72122438D02*
X122333333Y-72170057D01*
X123285714Y-73074819D02*
X122714286Y-73074819D01*
X123000000Y-73074819D02*
X123000000Y-72074819D01*
X123000000Y-72074819D02*
X122904762Y-72217676D01*
X122904762Y-72217676D02*
X122809524Y-72312914D01*
X122809524Y-72312914D02*
X122714286Y-72360533D01*
D11*
%TO.C,U4*%
X163060000Y-77552500D02*
X163060000Y-82172500D01*
X162860000Y-77552500D02*
X163060000Y-77552500D01*
X157840000Y-77552500D02*
X158040000Y-77552500D01*
X163060000Y-82172500D02*
X162860000Y-82172500D01*
X158040000Y-82172500D02*
X157840000Y-82172500D01*
X157840000Y-82172500D02*
X157840000Y-77552500D01*
X163330000Y-77252500D02*
X162860000Y-76912500D01*
X163330000Y-76572500D01*
X163330000Y-77252500D01*
G36*
X163330000Y-77252500D02*
G01*
X162860000Y-76912500D01*
X163330000Y-76572500D01*
X163330000Y-77252500D01*
G37*
%TO.C,U3*%
X150260000Y-77552500D02*
X150260000Y-82172500D01*
X150060000Y-77552500D02*
X150260000Y-77552500D01*
X145040000Y-77552500D02*
X145240000Y-77552500D01*
X150260000Y-82172500D02*
X150060000Y-82172500D01*
X145240000Y-82172500D02*
X145040000Y-82172500D01*
X145040000Y-82172500D02*
X145040000Y-77552500D01*
X150530000Y-77252500D02*
X150060000Y-76912500D01*
X150530000Y-76572500D01*
X150530000Y-77252500D01*
G36*
X150530000Y-77252500D02*
G01*
X150060000Y-76912500D01*
X150530000Y-76572500D01*
X150530000Y-77252500D01*
G37*
%TO.C,U2*%
X137972500Y-77390000D02*
X137972500Y-82010000D01*
X137772500Y-77390000D02*
X137972500Y-77390000D01*
X132752500Y-77390000D02*
X132952500Y-77390000D01*
X137972500Y-82010000D02*
X137772500Y-82010000D01*
X132952500Y-82010000D02*
X132752500Y-82010000D01*
X132752500Y-82010000D02*
X132752500Y-77390000D01*
X138242500Y-77090000D02*
X137772500Y-76750000D01*
X138242500Y-76410000D01*
X138242500Y-77090000D01*
G36*
X138242500Y-77090000D02*
G01*
X137772500Y-76750000D01*
X138242500Y-76410000D01*
X138242500Y-77090000D01*
G37*
%TO.C,R12*%
X164062258Y-74022500D02*
X163587742Y-74022500D01*
X164062258Y-72977500D02*
X163587742Y-72977500D01*
%TO.C,R11*%
X164062258Y-72022500D02*
X163587742Y-72022500D01*
X164062258Y-70977500D02*
X163587742Y-70977500D01*
%TO.C,R10*%
X157912258Y-70522500D02*
X157437742Y-70522500D01*
X157912258Y-69477500D02*
X157437742Y-69477500D01*
%TO.C,R9*%
X151562258Y-74022500D02*
X151087742Y-74022500D01*
X151562258Y-72977500D02*
X151087742Y-72977500D01*
%TO.C,R8*%
X151562258Y-72022500D02*
X151087742Y-72022500D01*
X151562258Y-70977500D02*
X151087742Y-70977500D01*
%TO.C,R7*%
X145412258Y-70522500D02*
X144937742Y-70522500D01*
X145412258Y-69477500D02*
X144937742Y-69477500D01*
%TO.C,R6*%
X139562258Y-74022500D02*
X139087742Y-74022500D01*
X139562258Y-72977500D02*
X139087742Y-72977500D01*
%TO.C,R5*%
X139562258Y-72022500D02*
X139087742Y-72022500D01*
X139562258Y-70977500D02*
X139087742Y-70977500D01*
%TO.C,R4*%
X133412258Y-70522500D02*
X132937742Y-70522500D01*
X133412258Y-69477500D02*
X132937742Y-69477500D01*
%TO.C,C20*%
X162990000Y-86365580D02*
X162990000Y-86084420D01*
X164010000Y-86365580D02*
X164010000Y-86084420D01*
%TO.C,C19*%
X156990000Y-86320580D02*
X156990000Y-86039420D01*
X158010000Y-86320580D02*
X158010000Y-86039420D01*
%TO.C,C18*%
X160990000Y-72415580D02*
X160990000Y-72134420D01*
X162010000Y-72415580D02*
X162010000Y-72134420D01*
%TO.C,C17*%
X159134420Y-73990000D02*
X159415580Y-73990000D01*
X159134420Y-75010000D02*
X159415580Y-75010000D01*
%TO.C,C16*%
X157865580Y-73010000D02*
X157584420Y-73010000D01*
X157865580Y-71990000D02*
X157584420Y-71990000D01*
%TO.C,C15*%
X149990000Y-86410580D02*
X149990000Y-86129420D01*
X151010000Y-86410580D02*
X151010000Y-86129420D01*
%TO.C,C14*%
X144990000Y-86410580D02*
X144990000Y-86129420D01*
X146010000Y-86410580D02*
X146010000Y-86129420D01*
%TO.C,C13*%
X148490000Y-72365580D02*
X148490000Y-72084420D01*
X149510000Y-72365580D02*
X149510000Y-72084420D01*
%TO.C,C12*%
X146634420Y-73990000D02*
X146915580Y-73990000D01*
X146634420Y-75010000D02*
X146915580Y-75010000D01*
%TO.C,C11*%
X145365580Y-72510000D02*
X145084420Y-72510000D01*
X145365580Y-71490000D02*
X145084420Y-71490000D01*
%TO.C,C10*%
X137490000Y-86410580D02*
X137490000Y-86129420D01*
X138510000Y-86410580D02*
X138510000Y-86129420D01*
%TO.C,C9*%
X132490000Y-86410580D02*
X132490000Y-86129420D01*
X133510000Y-86410580D02*
X133510000Y-86129420D01*
%TO.C,C8*%
X136490000Y-72365580D02*
X136490000Y-72084420D01*
X137510000Y-72365580D02*
X137510000Y-72084420D01*
%TO.C,C7*%
X134584420Y-73990000D02*
X134865580Y-73990000D01*
X134584420Y-75010000D02*
X134865580Y-75010000D01*
%TO.C,C6*%
X133365580Y-72510000D02*
X133084420Y-72510000D01*
X133365580Y-71490000D02*
X133084420Y-71490000D01*
%TO.C,U1*%
X125285000Y-77377500D02*
X125285000Y-81997500D01*
X125085000Y-77377500D02*
X125285000Y-77377500D01*
X120065000Y-77377500D02*
X120265000Y-77377500D01*
X125285000Y-81997500D02*
X125085000Y-81997500D01*
X120265000Y-81997500D02*
X120065000Y-81997500D01*
X120065000Y-81997500D02*
X120065000Y-77377500D01*
X125555000Y-77077500D02*
X125085000Y-76737500D01*
X125555000Y-76397500D01*
X125555000Y-77077500D01*
G36*
X125555000Y-77077500D02*
G01*
X125085000Y-76737500D01*
X125555000Y-76397500D01*
X125555000Y-77077500D01*
G37*
%TO.C,R3*%
X121287258Y-70572500D02*
X120812742Y-70572500D01*
X121287258Y-69527500D02*
X120812742Y-69527500D01*
%TO.C,R2*%
X127287258Y-71572500D02*
X126812742Y-71572500D01*
X127287258Y-70527500D02*
X126812742Y-70527500D01*
%TO.C,R1*%
X127287258Y-73572500D02*
X126812742Y-73572500D01*
X127287258Y-72527500D02*
X126812742Y-72527500D01*
%TO.C,J1*%
X127230000Y-59250000D02*
X129230000Y-59250000D01*
X127230000Y-60500000D02*
X127230000Y-59250000D01*
X127620000Y-59640000D02*
X127620000Y-67110000D01*
X127620000Y-67110000D02*
X159710000Y-67110000D01*
X128830000Y-60600000D02*
X131830000Y-60600000D01*
X128830000Y-61950000D02*
X129580000Y-61950000D01*
X128830000Y-66250000D02*
X128830000Y-61950000D01*
X129080000Y-61600000D02*
X128830000Y-60600000D01*
X129580000Y-61600000D02*
X129080000Y-61600000D01*
X129580000Y-61950000D02*
X129580000Y-61600000D01*
X129580000Y-66250000D02*
X128830000Y-66250000D01*
X131080000Y-61600000D02*
X131080000Y-61950000D01*
X131080000Y-61950000D02*
X131830000Y-61950000D01*
X131580000Y-61600000D02*
X131080000Y-61600000D01*
X131830000Y-60600000D02*
X131580000Y-61600000D01*
X131830000Y-61950000D02*
X131830000Y-66250000D01*
X131830000Y-66250000D02*
X131080000Y-66250000D01*
X132640000Y-60600000D02*
X135640000Y-60600000D01*
X132640000Y-61950000D02*
X133390000Y-61950000D01*
X132640000Y-66250000D02*
X132640000Y-61950000D01*
X132890000Y-61600000D02*
X132640000Y-60600000D01*
X133390000Y-61600000D02*
X132890000Y-61600000D01*
X133390000Y-61950000D02*
X133390000Y-61600000D01*
X133390000Y-66250000D02*
X132640000Y-66250000D01*
X134890000Y-61600000D02*
X134890000Y-61950000D01*
X134890000Y-61950000D02*
X135640000Y-61950000D01*
X135390000Y-61600000D02*
X134890000Y-61600000D01*
X135640000Y-60600000D02*
X135390000Y-61600000D01*
X135640000Y-61950000D02*
X135640000Y-66250000D01*
X135640000Y-66250000D02*
X134890000Y-66250000D01*
X136450000Y-60600000D02*
X139450000Y-60600000D01*
X136450000Y-61950000D02*
X137200000Y-61950000D01*
X136450000Y-66250000D02*
X136450000Y-61950000D01*
X136700000Y-61600000D02*
X136450000Y-60600000D01*
X137200000Y-61600000D02*
X136700000Y-61600000D01*
X137200000Y-61950000D02*
X137200000Y-61600000D01*
X137200000Y-66250000D02*
X136450000Y-66250000D01*
X138700000Y-61600000D02*
X138700000Y-61950000D01*
X138700000Y-61950000D02*
X139450000Y-61950000D01*
X139200000Y-61600000D02*
X138700000Y-61600000D01*
X139450000Y-60600000D02*
X139200000Y-61600000D01*
X139450000Y-61950000D02*
X139450000Y-66250000D01*
X139450000Y-66250000D02*
X138700000Y-66250000D01*
X140260000Y-60600000D02*
X143260000Y-60600000D01*
X140260000Y-61950000D02*
X141010000Y-61950000D01*
X140260000Y-66250000D02*
X140260000Y-61950000D01*
X140510000Y-61600000D02*
X140260000Y-60600000D01*
X141010000Y-61600000D02*
X140510000Y-61600000D01*
X141010000Y-61950000D02*
X141010000Y-61600000D01*
X141010000Y-66250000D02*
X140260000Y-66250000D01*
X142510000Y-61600000D02*
X142510000Y-61950000D01*
X142510000Y-61950000D02*
X143260000Y-61950000D01*
X143010000Y-61600000D02*
X142510000Y-61600000D01*
X143260000Y-60600000D02*
X143010000Y-61600000D01*
X143260000Y-61950000D02*
X143260000Y-66250000D01*
X143260000Y-66250000D02*
X142510000Y-66250000D01*
X144070000Y-60600000D02*
X147070000Y-60600000D01*
X144070000Y-61950000D02*
X144820000Y-61950000D01*
X144070000Y-66250000D02*
X144070000Y-61950000D01*
X144320000Y-61600000D02*
X144070000Y-60600000D01*
X144820000Y-61600000D02*
X144320000Y-61600000D01*
X144820000Y-61950000D02*
X144820000Y-61600000D01*
X144820000Y-66250000D02*
X144070000Y-66250000D01*
X146320000Y-61600000D02*
X146320000Y-61950000D01*
X146320000Y-61950000D02*
X147070000Y-61950000D01*
X146820000Y-61600000D02*
X146320000Y-61600000D01*
X147070000Y-60600000D02*
X146820000Y-61600000D01*
X147070000Y-61950000D02*
X147070000Y-66250000D01*
X147070000Y-66250000D02*
X146320000Y-66250000D01*
X147880000Y-60600000D02*
X150880000Y-60600000D01*
X147880000Y-61950000D02*
X148630000Y-61950000D01*
X147880000Y-66250000D02*
X147880000Y-61950000D01*
X148130000Y-61600000D02*
X147880000Y-60600000D01*
X148630000Y-61600000D02*
X148130000Y-61600000D01*
X148630000Y-61950000D02*
X148630000Y-61600000D01*
X148630000Y-66250000D02*
X147880000Y-66250000D01*
X150130000Y-61600000D02*
X150130000Y-61950000D01*
X150130000Y-61950000D02*
X150880000Y-61950000D01*
X150630000Y-61600000D02*
X150130000Y-61600000D01*
X150880000Y-60600000D02*
X150630000Y-61600000D01*
X150880000Y-61950000D02*
X150880000Y-66250000D01*
X150880000Y-66250000D02*
X150130000Y-66250000D01*
X151690000Y-60600000D02*
X154690000Y-60600000D01*
X151690000Y-61950000D02*
X152440000Y-61950000D01*
X151690000Y-66250000D02*
X151690000Y-61950000D01*
X151940000Y-61600000D02*
X151690000Y-60600000D01*
X152440000Y-61600000D02*
X151940000Y-61600000D01*
X152440000Y-61950000D02*
X152440000Y-61600000D01*
X152440000Y-66250000D02*
X151690000Y-66250000D01*
X153940000Y-61600000D02*
X153940000Y-61950000D01*
X153940000Y-61950000D02*
X154690000Y-61950000D01*
X154440000Y-61600000D02*
X153940000Y-61600000D01*
X154690000Y-60600000D02*
X154440000Y-61600000D01*
X154690000Y-61950000D02*
X154690000Y-66250000D01*
X154690000Y-66250000D02*
X153940000Y-66250000D01*
X155500000Y-60600000D02*
X158500000Y-60600000D01*
X155500000Y-61950000D02*
X156250000Y-61950000D01*
X155500000Y-66250000D02*
X155500000Y-61950000D01*
X155750000Y-61600000D02*
X155500000Y-60600000D01*
X156250000Y-61600000D02*
X155750000Y-61600000D01*
X156250000Y-61950000D02*
X156250000Y-61600000D01*
X156250000Y-66250000D02*
X155500000Y-66250000D01*
X157750000Y-61600000D02*
X157750000Y-61950000D01*
X157750000Y-61950000D02*
X158500000Y-61950000D01*
X158250000Y-61600000D02*
X157750000Y-61600000D01*
X158500000Y-60600000D02*
X158250000Y-61600000D01*
X158500000Y-61950000D02*
X158500000Y-66250000D01*
X158500000Y-66250000D02*
X157750000Y-66250000D01*
X159710000Y-59640000D02*
X127620000Y-59640000D01*
X159710000Y-67110000D02*
X159710000Y-59640000D01*
X129580000Y-66250000D02*
G75*
G02*
X131079647Y-66249844I750000J-1700000D01*
G01*
X133390000Y-66250000D02*
G75*
G02*
X134889647Y-66249844I750000J-1700000D01*
G01*
X137200000Y-66250000D02*
G75*
G02*
X138699647Y-66249844I750000J-1700000D01*
G01*
X141010000Y-66250000D02*
G75*
G02*
X142509647Y-66249844I750000J-1700000D01*
G01*
X144820000Y-66250000D02*
G75*
G02*
X146319647Y-66249844I750000J-1700000D01*
G01*
X148630000Y-66250000D02*
G75*
G02*
X150129647Y-66249844I750000J-1700000D01*
G01*
X152440000Y-66250000D02*
G75*
G02*
X153939647Y-66249844I750000J-1700000D01*
G01*
X156250000Y-66250000D02*
G75*
G02*
X157749647Y-66249844I750000J-1700000D01*
G01*
%TO.C,C5*%
X124490000Y-86410580D02*
X124490000Y-86129420D01*
X125510000Y-86410580D02*
X125510000Y-86129420D01*
%TO.C,C4*%
X120215000Y-86410580D02*
X120215000Y-86129420D01*
X121235000Y-86410580D02*
X121235000Y-86129420D01*
%TO.C,C3*%
X121140580Y-72560000D02*
X120859420Y-72560000D01*
X121140580Y-71540000D02*
X120859420Y-71540000D01*
%TO.C,C2*%
X124215000Y-71965580D02*
X124215000Y-71684420D01*
X125235000Y-71965580D02*
X125235000Y-71684420D01*
%TO.C,C1*%
X122359420Y-73540000D02*
X122640580Y-73540000D01*
X122359420Y-74560000D02*
X122640580Y-74560000D01*
%TD*%
M02*
