%TF.GenerationSoftware,KiCad,Pcbnew,9.0.6*%
%TF.CreationDate,2025-11-17T15:00:12+03:00*%
%TF.ProjectId,TempControl4ch,54656d70-436f-46e7-9472-6f6c3463682e,rev?*%
%TF.SameCoordinates,Original*%
%TF.FileFunction,Copper,L1,Top*%
%TF.FilePolarity,Positive*%
%FSLAX46Y46*%
G04 Gerber Fmt 4.6, Leading zero omitted, Abs format (unit mm)*
G04 Created by KiCad (PCBNEW 9.0.6) date 2025-11-17 15:00:12*
%MOMM*%
%LPD*%
G01*
G04 APERTURE LIST*
G04 Aperture macros list*
%AMRoundRect*
0 Rectangle with rounded corners*
0 $1 Rounding radius*
0 $2 $3 $4 $5 $6 $7 $8 $9 X,Y pos of 4 corners*
0 Add a 4 corners polygon primitive as box body*
4,1,4,$2,$3,$4,$5,$6,$7,$8,$9,$2,$3,0*
0 Add four circle primitives for the rounded corners*
1,1,$1+$1,$2,$3*
1,1,$1+$1,$4,$5*
1,1,$1+$1,$6,$7*
1,1,$1+$1,$8,$9*
0 Add four rect primitives between the rounded corners*
20,1,$1+$1,$2,$3,$4,$5,0*
20,1,$1+$1,$4,$5,$6,$7,0*
20,1,$1+$1,$6,$7,$8,$9,0*
20,1,$1+$1,$8,$9,$2,$3,0*%
G04 Aperture macros list end*
%TA.AperFunction,Conductor*%
%ADD10C,0.200000*%
%TD*%
%TA.AperFunction,SMDPad,CuDef*%
%ADD11RoundRect,0.100000X-0.100000X0.637500X-0.100000X-0.637500X0.100000X-0.637500X0.100000X0.637500X0*%
%TD*%
%TA.AperFunction,SMDPad,CuDef*%
%ADD12RoundRect,0.200000X0.200000X0.275000X-0.200000X0.275000X-0.200000X-0.275000X0.200000X-0.275000X0*%
%TD*%
%TA.AperFunction,SMDPad,CuDef*%
%ADD13RoundRect,0.225000X0.250000X-0.225000X0.250000X0.225000X-0.250000X0.225000X-0.250000X-0.225000X0*%
%TD*%
%TA.AperFunction,SMDPad,CuDef*%
%ADD14RoundRect,0.225000X-0.225000X-0.250000X0.225000X-0.250000X0.225000X0.250000X-0.225000X0.250000X0*%
%TD*%
%TA.AperFunction,SMDPad,CuDef*%
%ADD15RoundRect,0.225000X0.225000X0.250000X-0.225000X0.250000X-0.225000X-0.250000X0.225000X-0.250000X0*%
%TD*%
%TA.AperFunction,ComponentPad*%
%ADD16RoundRect,0.250000X-0.650000X-1.550000X0.650000X-1.550000X0.650000X1.550000X-0.650000X1.550000X0*%
%TD*%
%TA.AperFunction,ComponentPad*%
%ADD17O,1.800000X3.600000*%
%TD*%
%TA.AperFunction,ViaPad*%
%ADD18C,0.600000*%
%TD*%
G04 APERTURE END LIST*
D10*
%TO.N,GNDREF*%
X149500000Y-77500000D02*
X149500000Y-82500000D01*
%TD*%
D11*
%TO.P,U4,1,AGND*%
%TO.N,GNDREF*%
X162400000Y-77000000D03*
%TO.P,U4,2,BIAS*%
%TO.N,Net-(U4-BIAS)*%
X161750000Y-77000000D03*
%TO.P,U4,3,T-*%
%TO.N,Net-(U4-T-)*%
X161100000Y-77000000D03*
%TO.P,U4,4,T+*%
%TO.N,Net-(U4-T+)*%
X160450000Y-77000000D03*
%TO.P,U4,5,AVDD*%
%TO.N,VDD*%
X159800000Y-77000000D03*
%TO.P,U4,6,DNC*%
%TO.N,unconnected-(U4-DNC-Pad6)*%
X159150000Y-77000000D03*
%TO.P,U4,7,~{DRDY}*%
%TO.N,unconnected-(U4-~{DRDY}-Pad7)*%
X158500000Y-77000000D03*
%TO.P,U4,8,DVDD*%
%TO.N,VDD*%
X158500000Y-82725000D03*
%TO.P,U4,9,~{CS}*%
%TO.N,unconnected-(U4-~{CS}-Pad9)*%
X159150000Y-82725000D03*
%TO.P,U4,10,SCK*%
%TO.N,unconnected-(U4-SCK-Pad10)*%
X159800000Y-82725000D03*
%TO.P,U4,11,SDO*%
%TO.N,unconnected-(U4-SDO-Pad11)*%
X160450000Y-82725000D03*
%TO.P,U4,12,SDI*%
%TO.N,unconnected-(U4-SDI-Pad12)*%
X161100000Y-82725000D03*
%TO.P,U4,13,~{FAULT}*%
%TO.N,unconnected-(U4-~{FAULT}-Pad13)*%
X161750000Y-82725000D03*
%TO.P,U4,14,DGND*%
%TO.N,GNDREF*%
X162400000Y-82725000D03*
%TD*%
%TO.P,U3,1,AGND*%
%TO.N,GNDREF*%
X149600000Y-77000000D03*
%TO.P,U3,2,BIAS*%
%TO.N,Net-(U3-BIAS)*%
X148950000Y-77000000D03*
%TO.P,U3,3,T-*%
%TO.N,Net-(U3-T-)*%
X148300000Y-77000000D03*
%TO.P,U3,4,T+*%
%TO.N,Net-(U3-T+)*%
X147650000Y-77000000D03*
%TO.P,U3,5,AVDD*%
%TO.N,VDD*%
X147000000Y-77000000D03*
%TO.P,U3,6,DNC*%
%TO.N,unconnected-(U3-DNC-Pad6)*%
X146350000Y-77000000D03*
%TO.P,U3,7,~{DRDY}*%
%TO.N,unconnected-(U3-~{DRDY}-Pad7)*%
X145700000Y-77000000D03*
%TO.P,U3,8,DVDD*%
%TO.N,VDD*%
X145700000Y-82725000D03*
%TO.P,U3,9,~{CS}*%
%TO.N,unconnected-(U3-~{CS}-Pad9)*%
X146350000Y-82725000D03*
%TO.P,U3,10,SCK*%
%TO.N,unconnected-(U3-SCK-Pad10)*%
X147000000Y-82725000D03*
%TO.P,U3,11,SDO*%
%TO.N,unconnected-(U3-SDO-Pad11)*%
X147650000Y-82725000D03*
%TO.P,U3,12,SDI*%
%TO.N,unconnected-(U3-SDI-Pad12)*%
X148300000Y-82725000D03*
%TO.P,U3,13,~{FAULT}*%
%TO.N,unconnected-(U3-~{FAULT}-Pad13)*%
X148950000Y-82725000D03*
%TO.P,U3,14,DGND*%
%TO.N,GNDREF*%
X149600000Y-82725000D03*
%TD*%
%TO.P,U2,1,AGND*%
%TO.N,GNDREF*%
X137312500Y-76837500D03*
%TO.P,U2,2,BIAS*%
%TO.N,Net-(U2-BIAS)*%
X136662500Y-76837500D03*
%TO.P,U2,3,T-*%
%TO.N,Net-(U2-T-)*%
X136012500Y-76837500D03*
%TO.P,U2,4,T+*%
%TO.N,Net-(U2-T+)*%
X135362500Y-76837500D03*
%TO.P,U2,5,AVDD*%
%TO.N,VDD*%
X134712500Y-76837500D03*
%TO.P,U2,6,DNC*%
%TO.N,unconnected-(U2-DNC-Pad6)*%
X134062500Y-76837500D03*
%TO.P,U2,7,~{DRDY}*%
%TO.N,unconnected-(U2-~{DRDY}-Pad7)*%
X133412500Y-76837500D03*
%TO.P,U2,8,DVDD*%
%TO.N,VDD*%
X133412500Y-82562500D03*
%TO.P,U2,9,~{CS}*%
%TO.N,unconnected-(U2-~{CS}-Pad9)*%
X134062500Y-82562500D03*
%TO.P,U2,10,SCK*%
%TO.N,unconnected-(U2-SCK-Pad10)*%
X134712500Y-82562500D03*
%TO.P,U2,11,SDO*%
%TO.N,unconnected-(U2-SDO-Pad11)*%
X135362500Y-82562500D03*
%TO.P,U2,12,SDI*%
%TO.N,unconnected-(U2-SDI-Pad12)*%
X136012500Y-82562500D03*
%TO.P,U2,13,~{FAULT}*%
%TO.N,unconnected-(U2-~{FAULT}-Pad13)*%
X136662500Y-82562500D03*
%TO.P,U2,14,DGND*%
%TO.N,GNDREF*%
X137312500Y-82562500D03*
%TD*%
D12*
%TO.P,R12,1*%
%TO.N,Net-(J1-Pin_8)*%
X164650000Y-73500000D03*
%TO.P,R12,2*%
%TO.N,Net-(U4-BIAS)*%
X163000000Y-73500000D03*
%TD*%
%TO.P,R11,1*%
%TO.N,Net-(J1-Pin_8)*%
X164650000Y-71500000D03*
%TO.P,R11,2*%
%TO.N,Net-(U4-T-)*%
X163000000Y-71500000D03*
%TD*%
%TO.P,R10,1*%
%TO.N,Net-(J1-Pin_7)*%
X158500000Y-70000000D03*
%TO.P,R10,2*%
%TO.N,Net-(U4-T+)*%
X156850000Y-70000000D03*
%TD*%
%TO.P,R9,1*%
%TO.N,Net-(J1-Pin_6)*%
X152150000Y-73500000D03*
%TO.P,R9,2*%
%TO.N,Net-(U3-BIAS)*%
X150500000Y-73500000D03*
%TD*%
%TO.P,R8,1*%
%TO.N,Net-(J1-Pin_6)*%
X152150000Y-71500000D03*
%TO.P,R8,2*%
%TO.N,Net-(U3-T-)*%
X150500000Y-71500000D03*
%TD*%
%TO.P,R7,1*%
%TO.N,Net-(J1-Pin_5)*%
X146000000Y-70000000D03*
%TO.P,R7,2*%
%TO.N,Net-(U3-T+)*%
X144350000Y-70000000D03*
%TD*%
%TO.P,R6,1*%
%TO.N,Net-(J1-Pin_4)*%
X140150000Y-73500000D03*
%TO.P,R6,2*%
%TO.N,Net-(U2-BIAS)*%
X138500000Y-73500000D03*
%TD*%
%TO.P,R5,1*%
%TO.N,Net-(J1-Pin_4)*%
X140150000Y-71500000D03*
%TO.P,R5,2*%
%TO.N,Net-(U2-T-)*%
X138500000Y-71500000D03*
%TD*%
%TO.P,R4,1*%
%TO.N,Net-(J1-Pin_3)*%
X134000000Y-70000000D03*
%TO.P,R4,2*%
%TO.N,Net-(U2-T+)*%
X132350000Y-70000000D03*
%TD*%
D13*
%TO.P,C20,1*%
%TO.N,GNDREF*%
X163500000Y-87000000D03*
%TO.P,C20,2*%
%TO.N,VDD*%
X163500000Y-85450000D03*
%TD*%
%TO.P,C19,1*%
%TO.N,GNDREF*%
X157500000Y-86955000D03*
%TO.P,C19,2*%
%TO.N,VDD*%
X157500000Y-85405000D03*
%TD*%
%TO.P,C18,1*%
%TO.N,Net-(U4-T-)*%
X161500000Y-73050000D03*
%TO.P,C18,2*%
%TO.N,GNDREF*%
X161500000Y-71500000D03*
%TD*%
D14*
%TO.P,C17,1*%
%TO.N,Net-(U4-T+)*%
X158500000Y-74500000D03*
%TO.P,C17,2*%
%TO.N,Net-(U4-T-)*%
X160050000Y-74500000D03*
%TD*%
D15*
%TO.P,C16,1*%
%TO.N,GNDREF*%
X158500000Y-72500000D03*
%TO.P,C16,2*%
%TO.N,Net-(U4-T+)*%
X156950000Y-72500000D03*
%TD*%
D13*
%TO.P,C15,1*%
%TO.N,GNDREF*%
X150500000Y-87045000D03*
%TO.P,C15,2*%
%TO.N,VDD*%
X150500000Y-85495000D03*
%TD*%
%TO.P,C14,1*%
%TO.N,GNDREF*%
X145500000Y-87045000D03*
%TO.P,C14,2*%
%TO.N,VDD*%
X145500000Y-85495000D03*
%TD*%
%TO.P,C13,1*%
%TO.N,Net-(U3-T-)*%
X149000000Y-73000000D03*
%TO.P,C13,2*%
%TO.N,GNDREF*%
X149000000Y-71450000D03*
%TD*%
D14*
%TO.P,C12,1*%
%TO.N,Net-(U3-T+)*%
X146000000Y-74500000D03*
%TO.P,C12,2*%
%TO.N,Net-(U3-T-)*%
X147550000Y-74500000D03*
%TD*%
D15*
%TO.P,C11,1*%
%TO.N,GNDREF*%
X146000000Y-72000000D03*
%TO.P,C11,2*%
%TO.N,Net-(U3-T+)*%
X144450000Y-72000000D03*
%TD*%
D13*
%TO.P,C10,1*%
%TO.N,GNDREF*%
X138000000Y-87045000D03*
%TO.P,C10,2*%
%TO.N,VDD*%
X138000000Y-85495000D03*
%TD*%
%TO.P,C9,1*%
%TO.N,GNDREF*%
X133000000Y-87045000D03*
%TO.P,C9,2*%
%TO.N,VDD*%
X133000000Y-85495000D03*
%TD*%
%TO.P,C8,1*%
%TO.N,Net-(U2-T-)*%
X137000000Y-73000000D03*
%TO.P,C8,2*%
%TO.N,GNDREF*%
X137000000Y-71450000D03*
%TD*%
D14*
%TO.P,C7,1*%
%TO.N,Net-(U2-T+)*%
X133950000Y-74500000D03*
%TO.P,C7,2*%
%TO.N,Net-(U2-T-)*%
X135500000Y-74500000D03*
%TD*%
D15*
%TO.P,C6,1*%
%TO.N,GNDREF*%
X134000000Y-72000000D03*
%TO.P,C6,2*%
%TO.N,Net-(U2-T+)*%
X132450000Y-72000000D03*
%TD*%
D11*
%TO.P,U1,1,AGND*%
%TO.N,GNDREF*%
X124625000Y-76825000D03*
%TO.P,U1,2,BIAS*%
%TO.N,Net-(U1-BIAS)*%
X123975000Y-76825000D03*
%TO.P,U1,3,T-*%
%TO.N,Net-(U1-T-)*%
X123325000Y-76825000D03*
%TO.P,U1,4,T+*%
%TO.N,Net-(U1-T+)*%
X122675000Y-76825000D03*
%TO.P,U1,5,AVDD*%
%TO.N,VDD*%
X122025000Y-76825000D03*
%TO.P,U1,6,DNC*%
%TO.N,unconnected-(U1-DNC-Pad6)*%
X121375000Y-76825000D03*
%TO.P,U1,7,~{DRDY}*%
%TO.N,unconnected-(U1-~{DRDY}-Pad7)*%
X120725000Y-76825000D03*
%TO.P,U1,8,DVDD*%
%TO.N,VDD*%
X120725000Y-82550000D03*
%TO.P,U1,9,~{CS}*%
%TO.N,unconnected-(U1-~{CS}-Pad9)*%
X121375000Y-82550000D03*
%TO.P,U1,10,SCK*%
%TO.N,unconnected-(U1-SCK-Pad10)*%
X122025000Y-82550000D03*
%TO.P,U1,11,SDO*%
%TO.N,unconnected-(U1-SDO-Pad11)*%
X122675000Y-82550000D03*
%TO.P,U1,12,SDI*%
%TO.N,unconnected-(U1-SDI-Pad12)*%
X123325000Y-82550000D03*
%TO.P,U1,13,~{FAULT}*%
%TO.N,unconnected-(U1-~{FAULT}-Pad13)*%
X123975000Y-82550000D03*
%TO.P,U1,14,DGND*%
%TO.N,GNDREF*%
X124625000Y-82550000D03*
%TD*%
D12*
%TO.P,R3,1*%
%TO.N,Net-(J1-Pin_1)*%
X121875000Y-70050000D03*
%TO.P,R3,2*%
%TO.N,Net-(U1-T+)*%
X120225000Y-70050000D03*
%TD*%
%TO.P,R2,1*%
%TO.N,Net-(J1-Pin_2)*%
X127875000Y-71050000D03*
%TO.P,R2,2*%
%TO.N,Net-(U1-T-)*%
X126225000Y-71050000D03*
%TD*%
%TO.P,R1,1*%
%TO.N,Net-(J1-Pin_2)*%
X127875000Y-73050000D03*
%TO.P,R1,2*%
%TO.N,Net-(U1-BIAS)*%
X126225000Y-73050000D03*
%TD*%
D16*
%TO.P,J1,1,Pin_1*%
%TO.N,Net-(J1-Pin_1)*%
X130330000Y-64000000D03*
D17*
%TO.P,J1,2,Pin_2*%
%TO.N,Net-(J1-Pin_2)*%
X134140000Y-64000000D03*
%TO.P,J1,3,Pin_3*%
%TO.N,Net-(J1-Pin_3)*%
X137950000Y-64000000D03*
%TO.P,J1,4,Pin_4*%
%TO.N,Net-(J1-Pin_4)*%
X141760000Y-64000000D03*
%TO.P,J1,5,Pin_5*%
%TO.N,Net-(J1-Pin_5)*%
X145570000Y-64000000D03*
%TO.P,J1,6,Pin_6*%
%TO.N,Net-(J1-Pin_6)*%
X149380000Y-64000000D03*
%TO.P,J1,7,Pin_7*%
%TO.N,Net-(J1-Pin_7)*%
X153190000Y-64000000D03*
%TO.P,J1,8,Pin_8*%
%TO.N,Net-(J1-Pin_8)*%
X157000000Y-64000000D03*
%TD*%
D13*
%TO.P,C5,1*%
%TO.N,GNDREF*%
X125000000Y-87045000D03*
%TO.P,C5,2*%
%TO.N,VDD*%
X125000000Y-85495000D03*
%TD*%
%TO.P,C4,1*%
%TO.N,GNDREF*%
X120725000Y-87045000D03*
%TO.P,C4,2*%
%TO.N,VDD*%
X120725000Y-85495000D03*
%TD*%
D15*
%TO.P,C3,1*%
%TO.N,GNDREF*%
X121775000Y-72050000D03*
%TO.P,C3,2*%
%TO.N,Net-(U1-T+)*%
X120225000Y-72050000D03*
%TD*%
D13*
%TO.P,C2,1*%
%TO.N,Net-(U1-T-)*%
X124725000Y-72600000D03*
%TO.P,C2,2*%
%TO.N,GNDREF*%
X124725000Y-71050000D03*
%TD*%
D14*
%TO.P,C1,1*%
%TO.N,Net-(U1-T+)*%
X121725000Y-74050000D03*
%TO.P,C1,2*%
%TO.N,Net-(U1-T-)*%
X123275000Y-74050000D03*
%TD*%
D18*
%TO.N,VDD*%
X125662500Y-79435200D03*
X124692000Y-84426500D03*
X145521900Y-88509800D03*
X142550000Y-82306700D03*
%TD*%
D10*
%TO.N,Net-(U4-BIAS)*%
X161750000Y-74750000D02*
X161750000Y-77000000D01*
X163000000Y-73500000D02*
X161750000Y-74750000D01*
%TO.N,Net-(U3-BIAS)*%
X150486000Y-74736300D02*
X150486000Y-73485500D01*
X148950000Y-76271800D02*
X150486000Y-74736300D01*
X148950000Y-77000000D02*
X148950000Y-76271800D01*
X150471000Y-73471100D02*
X150486000Y-73485500D01*
X150486000Y-73485500D02*
X150500000Y-73500000D01*
%TO.N,Net-(U2-BIAS)*%
X136732000Y-76767100D02*
X136803000Y-76696700D01*
X136732000Y-75267500D02*
X138500000Y-73500000D01*
X136732000Y-76767100D02*
X136732000Y-75267500D01*
X136697000Y-76802300D02*
X136662000Y-76836800D01*
X136697000Y-76802300D02*
X136662000Y-76837100D01*
X136697000Y-76802300D02*
X136732000Y-76767100D01*
X136680000Y-76819900D02*
X136662000Y-76836900D01*
X136680000Y-76819900D02*
X136697000Y-76802300D01*
X136671000Y-76828700D02*
X136662000Y-76837200D01*
X136662000Y-76837500D02*
X136680000Y-76819900D01*
X136662300Y-76837300D02*
X136662500Y-76837500D01*
X136662000Y-76837300D02*
X136662300Y-76837300D01*
X136662000Y-76837200D02*
X136662000Y-76837300D01*
X136662000Y-76837300D02*
X136662000Y-76837500D01*
X136662000Y-76836900D02*
X136662000Y-76837300D01*
X136662000Y-76837300D02*
X136662000Y-76837500D01*
X136662000Y-76837100D02*
X136662000Y-76837300D01*
X136662000Y-76837300D02*
X136662000Y-76837500D01*
X136662000Y-76836800D02*
X136662000Y-76837300D01*
X136662000Y-76837300D02*
X136662000Y-76837500D01*
%TO.N,Net-(J1-Pin_7)*%
X154602000Y-66101700D02*
X158500000Y-70000000D01*
X153190000Y-66101700D02*
X154602000Y-66101700D01*
X153190000Y-64000000D02*
X153190000Y-66101700D01*
%TO.N,Net-(J1-Pin_8)*%
X164650000Y-71500000D02*
X164650000Y-73500000D01*
X164650000Y-71247800D02*
X164650000Y-71500000D01*
X159504000Y-66101700D02*
X164650000Y-71247800D01*
X157000000Y-66101700D02*
X159504000Y-66101700D01*
X157000000Y-64000000D02*
X157000000Y-66101700D01*
%TO.N,Net-(J1-Pin_4)*%
X140150000Y-71500000D02*
X140150000Y-73500000D01*
X141760000Y-69890000D02*
X141760000Y-64000000D01*
X140150000Y-71500000D02*
X141760000Y-69890000D01*
%TO.N,Net-(J1-Pin_6)*%
X152150000Y-73500000D02*
X152150000Y-71500000D01*
X152058000Y-68779200D02*
X152058000Y-71407300D01*
X149380000Y-66101700D02*
X152058000Y-68779200D01*
X149380000Y-64000000D02*
X149380000Y-66101700D01*
X151965000Y-71314600D02*
X152058000Y-71407300D01*
X152058000Y-71407300D02*
X152150000Y-71500000D01*
%TO.N,Net-(J1-Pin_5)*%
X146000000Y-66531700D02*
X146000000Y-70000000D01*
X145570000Y-66101700D02*
X146000000Y-66531700D01*
X145570000Y-64000000D02*
X145570000Y-66101700D01*
%TO.N,Net-(J1-Pin_3)*%
X134000000Y-69129700D02*
X134000000Y-70000000D01*
X137028000Y-66101700D02*
X134000000Y-69129700D01*
X137950000Y-66101700D02*
X137028000Y-66101700D01*
X137950000Y-64000000D02*
X137950000Y-66101700D01*
%TO.N,Net-(U4-T-)*%
X163000000Y-71550000D02*
X161500000Y-73050000D01*
X163000000Y-71500000D02*
X163000000Y-71550000D01*
X161100000Y-73450000D02*
X161100000Y-74500000D01*
X161500000Y-73050000D02*
X161100000Y-73450000D01*
X160050000Y-74500000D02*
X161100000Y-74500000D01*
X161100000Y-74500000D02*
X161100000Y-77000000D01*
%TO.N,Net-(U4-T+)*%
X156950000Y-70100000D02*
X156950000Y-72500000D01*
X156850000Y-70000000D02*
X156950000Y-70100000D01*
X156950000Y-72950000D02*
X158500000Y-74500000D01*
X156950000Y-72500000D02*
X156950000Y-72950000D01*
X158612000Y-74500000D02*
X158500000Y-74500000D01*
X160450000Y-76338200D02*
X158612000Y-74500000D01*
X160450000Y-77000000D02*
X160450000Y-76338200D01*
%TO.N,Net-(U3-T-)*%
X147550000Y-74500000D02*
X147264000Y-74500000D01*
X148300000Y-74500000D02*
X147550000Y-74500000D01*
X148300000Y-74500000D02*
X148300000Y-77000000D01*
X148300000Y-73700000D02*
X149000000Y-73000000D01*
X148300000Y-74500000D02*
X148300000Y-73700000D01*
X150500000Y-71500100D02*
X150500000Y-71500000D01*
X149000000Y-73000000D02*
X150500000Y-71500100D01*
%TO.N,Net-(U3-T+)*%
X147650000Y-76150000D02*
X147650000Y-77000000D01*
X146000000Y-74500000D02*
X147650000Y-76150000D01*
X144450000Y-70100000D02*
X144450000Y-72000000D01*
X144350000Y-70000000D02*
X144450000Y-70100000D01*
X144450000Y-72950000D02*
X146000000Y-74500000D01*
X144450000Y-72000000D02*
X144450000Y-72950000D01*
%TO.N,Net-(J1-Pin_1)*%
X124280000Y-70050000D02*
X121875000Y-70050000D01*
X130330000Y-64000000D02*
X124280000Y-70050000D01*
%TO.N,Net-(J1-Pin_2)*%
X127875000Y-73050000D02*
X127875000Y-71050000D01*
X132823000Y-66101700D02*
X127875000Y-71050000D01*
X134140000Y-66101700D02*
X132823000Y-66101700D01*
X134140000Y-64000000D02*
X134140000Y-66101700D01*
%TO.N,Net-(U2-T-)*%
X136012000Y-73988000D02*
X136012000Y-75012400D01*
X137000000Y-73000000D02*
X136012000Y-73988000D01*
X135500000Y-74500000D02*
X136012000Y-75012400D01*
X138500000Y-71500000D02*
X137000000Y-73000000D01*
X136012000Y-76381400D02*
X136012000Y-76381900D01*
X136012000Y-75924900D02*
X136012000Y-76381400D01*
X136012000Y-75012400D02*
X136012000Y-76508300D01*
X136012000Y-76610200D02*
X136012000Y-76837500D01*
X136012000Y-76609700D02*
X136012000Y-76610200D01*
X136012500Y-76610200D02*
X136012500Y-76837500D01*
X136012000Y-76609700D02*
X136012500Y-76610200D01*
X136012000Y-76381900D02*
X136012000Y-76609700D01*
X136012000Y-76609700D02*
X136012000Y-76837500D01*
%TO.N,Net-(U2-T+)*%
X132450000Y-73000000D02*
X133950000Y-74500000D01*
X132450000Y-72000000D02*
X132450000Y-73000000D01*
X134450000Y-75000500D02*
X134450000Y-74999500D01*
X135362000Y-75912500D02*
X134450000Y-75000500D01*
X135362000Y-76837500D02*
X135362000Y-75912500D01*
X132450000Y-70029000D02*
X132450000Y-72000000D01*
X132350000Y-69929000D02*
X132450000Y-70029000D01*
X132350000Y-69858000D02*
X132350000Y-70000000D01*
X134000000Y-74550000D02*
X134450000Y-74999500D01*
X134450000Y-74999500D02*
X133950000Y-74500000D01*
X135362500Y-76837500D02*
X135362000Y-76837500D01*
%TO.N,Net-(U1-BIAS)*%
X123975000Y-75300000D02*
X123975000Y-76825000D01*
X126225000Y-73050000D02*
X123975000Y-75300000D01*
%TO.N,Net-(U1-T-)*%
X123325000Y-74100000D02*
X123275000Y-74050000D01*
X123325000Y-76825000D02*
X123325000Y-74100000D01*
X123275000Y-74050000D02*
X124725000Y-72600000D01*
X126225000Y-71100000D02*
X124725000Y-72600000D01*
X126225000Y-71050000D02*
X126225000Y-71100000D01*
%TO.N,GNDREF*%
X162400000Y-82725000D02*
X162400000Y-85900000D01*
X125784000Y-83709000D02*
X125784000Y-86246100D01*
X138799000Y-84048900D02*
X138799000Y-86246100D01*
X150050000Y-86595000D02*
X150500000Y-87045000D01*
X145950000Y-86595000D02*
X150050000Y-86595000D01*
X145500000Y-87045000D02*
X145950000Y-86595000D01*
X151276000Y-84401000D02*
X151276000Y-86269000D01*
X151302000Y-75298000D02*
X149600000Y-77000000D01*
X151302000Y-71085300D02*
X151302000Y-75298000D01*
X149600000Y-82725000D02*
X151276000Y-84401000D01*
X151276000Y-86269000D02*
X150500000Y-87045000D01*
X151045000Y-86500000D02*
X150500000Y-87045000D01*
X157500000Y-86955200D02*
X157500000Y-86955000D01*
X157955000Y-86955200D02*
X157500000Y-86955200D01*
X124626000Y-76824000D02*
X124625000Y-76825000D01*
X120725000Y-87045000D02*
X125000000Y-87045000D01*
X133000000Y-87045000D02*
X138000000Y-87045000D01*
X125784000Y-86261000D02*
X125000000Y-87045000D01*
X125784000Y-86246100D02*
X125784000Y-86261000D01*
X132201000Y-86246100D02*
X133000000Y-87045000D01*
X125784000Y-86246100D02*
X132201000Y-86246100D01*
X124625000Y-82550000D02*
X124625000Y-76825000D01*
X124625000Y-82550000D02*
X125784000Y-83709000D01*
X134550000Y-71450000D02*
X134000000Y-72000000D01*
X137000000Y-71450000D02*
X134550000Y-71450000D01*
X137312000Y-82562700D02*
X137312000Y-82562500D01*
X138056000Y-83305700D02*
X137312000Y-82562700D01*
X159500000Y-71500000D02*
X158500000Y-72500000D01*
X161500000Y-71500000D02*
X159500000Y-71500000D01*
X157955000Y-86955000D02*
X157955000Y-86955200D01*
X162400000Y-85900000D02*
X163500000Y-87000000D01*
X162308000Y-70692400D02*
X161500000Y-71500000D01*
X163406000Y-70692400D02*
X162308000Y-70692400D01*
X163706000Y-70992900D02*
X163406000Y-70692400D01*
X163706000Y-75693700D02*
X163706000Y-70992900D01*
X162400000Y-77000000D02*
X163706000Y-75693700D01*
X162400000Y-77000000D02*
X162400000Y-82725000D01*
X157955000Y-86955500D02*
X157955000Y-86955200D01*
X144701000Y-86246100D02*
X145500000Y-87045000D01*
X138799000Y-86246100D02*
X144701000Y-86246100D01*
X138056000Y-83305700D02*
X138799000Y-84048900D01*
X138799000Y-86246100D02*
X138000000Y-87045000D01*
X137312000Y-76837000D02*
X137312000Y-76837500D01*
X138264000Y-75885500D02*
X137312000Y-76837000D01*
X139216000Y-74933500D02*
X138264000Y-75885500D01*
X138891000Y-70681400D02*
X139216000Y-71006900D01*
X137769000Y-70681400D02*
X138891000Y-70681400D01*
X137000000Y-71450000D02*
X137769000Y-70681400D01*
X137312000Y-76837500D02*
X137312000Y-82562500D01*
X157955000Y-86955100D02*
X158182000Y-86728000D01*
X159010000Y-85900000D02*
X162400000Y-85900000D01*
X158182000Y-86728000D02*
X159010000Y-85900000D01*
X158182000Y-86728000D02*
X157955000Y-86955000D01*
X148450000Y-72000000D02*
X149000000Y-71450000D01*
X146000000Y-72000000D02*
X148450000Y-72000000D01*
X150919000Y-70702200D02*
X151302000Y-71085300D01*
X149748000Y-70702200D02*
X150919000Y-70702200D01*
X149000000Y-71450000D02*
X149748000Y-70702200D01*
X137312000Y-82562600D02*
X137312000Y-82562500D01*
X137684000Y-82934100D02*
X137312000Y-82562600D01*
X137312000Y-82562500D02*
X138056000Y-83305700D01*
X124437000Y-71337900D02*
X124725000Y-71050000D01*
X123725000Y-72050000D02*
X124437000Y-71337900D01*
X121775000Y-72050000D02*
X123725000Y-72050000D01*
X126955000Y-74494800D02*
X124626000Y-76824000D01*
X126955000Y-70525600D02*
X126955000Y-74494800D01*
X126671000Y-70241300D02*
X126955000Y-70525600D01*
X125534000Y-70241300D02*
X126671000Y-70241300D01*
X124725000Y-71050000D02*
X125534000Y-70241300D01*
X137312000Y-76837000D02*
X137312000Y-76837500D01*
X137788000Y-76361500D02*
X137312000Y-76837000D01*
X138264000Y-75885500D02*
X137312000Y-76837500D01*
X137312500Y-76837500D02*
X137312000Y-76837500D01*
X137312500Y-82562500D02*
X137312000Y-82562500D01*
X149788000Y-76812400D02*
X149694000Y-76906200D01*
X149694000Y-76906200D02*
X149600000Y-77000000D01*
X157500000Y-86500000D02*
X154272500Y-86500000D01*
X154272500Y-86500000D02*
X151045000Y-86500000D01*
X157954000Y-86500000D02*
X158182000Y-86728000D01*
X157500000Y-86500000D02*
X157954000Y-86500000D01*
X139216000Y-71006900D02*
X139216000Y-74504600D01*
X139216000Y-74504600D02*
X139216000Y-74933500D01*
X145201100Y-71201100D02*
X146000000Y-72000000D01*
X145201100Y-68491700D02*
X145201100Y-71201100D01*
X143875000Y-67165600D02*
X145201100Y-68491700D01*
X143875000Y-63515500D02*
X143875000Y-67165600D01*
X142257800Y-61898300D02*
X143875000Y-63515500D01*
X141262200Y-61898300D02*
X142257800Y-61898300D01*
X139216000Y-63944500D02*
X141262200Y-61898300D01*
X139216000Y-71006900D02*
X139216000Y-63944500D01*
%TO.N,Net-(U1-T+)*%
X120225000Y-72050000D02*
X120225000Y-70050000D01*
X122675000Y-75000000D02*
X121725000Y-74050000D01*
X122675000Y-76825000D02*
X122675000Y-75000000D01*
X120225000Y-72550000D02*
X120225000Y-72050000D01*
X121725000Y-74050000D02*
X120225000Y-72550000D01*
%TO.N,VDD*%
X137588000Y-85082500D02*
X133412000Y-85082500D01*
X138000000Y-85495000D02*
X137588000Y-85082500D01*
X133000000Y-85288700D02*
X133000000Y-85495000D01*
X133206000Y-85288700D02*
X133000000Y-85288700D01*
X133412000Y-85082500D02*
X133206000Y-85288700D01*
X147000000Y-77000000D02*
X147000000Y-80756200D01*
X145700000Y-82056200D02*
X145700000Y-82725000D01*
X147000000Y-80756200D02*
X145700000Y-82056200D01*
X122025000Y-80546000D02*
X122025000Y-76825000D01*
X120725000Y-81846000D02*
X122025000Y-80546000D01*
X120725000Y-82550000D02*
X120725000Y-81846000D01*
X134712000Y-78587200D02*
X133412000Y-79887200D01*
X134712000Y-77712300D02*
X134712000Y-78587200D01*
X133410000Y-85080200D02*
X133412000Y-85082500D01*
X134712000Y-76838000D02*
X134712000Y-77712300D01*
X134712000Y-76837500D02*
X134712000Y-76838000D01*
X120725000Y-85495000D02*
X125000000Y-85495000D01*
X133412000Y-81893600D02*
X133412000Y-81894100D01*
X133412000Y-81224800D02*
X133412000Y-81893600D01*
X133412500Y-81894100D02*
X133412500Y-82562500D01*
X133412000Y-81893600D02*
X133412500Y-81894100D01*
X133412000Y-81224800D02*
X133412000Y-81893600D01*
X134712500Y-76837500D02*
X134712000Y-76837500D01*
X158500000Y-84405000D02*
X158500000Y-82725000D01*
X157500000Y-85405000D02*
X158500000Y-84405000D01*
X133412000Y-81893600D02*
X133412000Y-82228000D01*
X133412000Y-82228000D02*
X133412000Y-82562500D01*
X133412000Y-81894100D02*
X133412000Y-82228000D01*
X133412000Y-82228000D02*
X133412000Y-82562500D01*
X133410000Y-82230000D02*
X133410000Y-85080200D01*
X133412000Y-82228000D02*
X133410000Y-82230000D01*
X133412000Y-79887200D02*
X133412000Y-80556000D01*
X133412000Y-80556000D02*
X133412000Y-81224800D01*
X126783300Y-80556000D02*
X125662500Y-79435200D01*
X133412000Y-80556000D02*
X126783300Y-80556000D01*
X125000000Y-84734500D02*
X125000000Y-85495000D01*
X124692000Y-84426500D02*
X125000000Y-84734500D01*
X120725000Y-86500000D02*
X120725000Y-85495000D01*
X120725000Y-85495000D02*
X120725000Y-82550000D01*
X163915900Y-87811700D02*
X145521900Y-87811700D01*
X164281300Y-87446300D02*
X163915900Y-87811700D01*
X164281300Y-86231300D02*
X164281300Y-87446300D01*
X163500000Y-85450000D02*
X164281300Y-86231300D01*
X145281700Y-82306700D02*
X145700000Y-82725000D01*
X142550000Y-82306700D02*
X145281700Y-82306700D01*
X145521900Y-87811700D02*
X145521900Y-88509800D01*
X119926100Y-86293900D02*
X120725000Y-85495000D01*
X119926100Y-87493200D02*
X119926100Y-86293900D01*
X120244600Y-87811700D02*
X119926100Y-87493200D01*
X145521900Y-87811700D02*
X120244600Y-87811700D01*
X145500000Y-85495000D02*
X150500000Y-85495000D01*
X145500000Y-84599300D02*
X145500000Y-85495000D01*
X145700000Y-84399300D02*
X145500000Y-84599300D01*
X145700000Y-82725000D02*
X145700000Y-84399300D01*
X145700000Y-84399300D02*
X145700000Y-85235800D01*
X147044300Y-80800500D02*
X147000000Y-80756200D01*
X158674800Y-80800500D02*
X147044300Y-80800500D01*
X159800000Y-79675300D02*
X158674800Y-80800500D01*
X159800000Y-77000000D02*
X159800000Y-79675300D01*
X158500000Y-80975300D02*
X158500000Y-82725000D01*
X158674800Y-80800500D02*
X158500000Y-80975300D01*
%TD*%
M02*
